<?xml version="1.0" encoding="UTF-8"?>
<svg xmlns="http://www.w3.org/2000/svg" id="Artwork" viewBox="0 0 1000 706.4">
  <defs>
    <style>.cls-1,.cls-2,.cls-3,.cls-4,.cls-5,.cls-6,.cls-7,.cls-8{fill:none;}.cls-1,.cls-4,.cls-5,.cls-6,.cls-7,.cls-8{stroke-linecap:round;stroke-linejoin:round;}.cls-1,.cls-4,.cls-5,.cls-8{stroke-width:1.98px;}.cls-1,.cls-7{stroke:#839fb8;}.cls-9{fill:#e4e4e4;opacity:.5;}.cls-2{stroke-width:.5px;}.cls-2,.cls-3{stroke:#969696;}.cls-4{stroke:#cd0857;}.cls-10{fill:#797879;}.cls-5{stroke:#f9b917;}.cls-6,.cls-7{stroke-width:2px;}.cls-6,.cls-8{stroke:#6ac1bd;}</style>
  </defs>
  <rect class="cls-9" x="388.71" y="97.72" width="593.33" height="430.2"></rect>
  <g>
    <line class="cls-3" x1="61.99" y1="527.35" x2="982.77" y2="527.35"></line>
    <g>
      <path class="cls-10" d="M40.21,519.72c1.98,0,3.49,1.33,3.49,3.31,0,1.19-.79,2.47-2.03,2.81v.02c1.62,.34,2.48,1.75,2.48,3.28,0,2.29-1.69,3.76-3.94,3.76s-3.94-1.48-3.94-3.76c0-1.53,.86-2.94,2.48-3.28v-.02c-1.24-.34-2.03-1.62-2.03-2.81,0-1.98,1.51-3.31,3.49-3.31Zm0,12.21c1.67,0,2.75-1.26,2.75-2.79,0-1.67-1.22-2.79-2.75-2.79s-2.75,1.12-2.75,2.79c0,1.53,1.08,2.79,2.75,2.79Zm0-6.55c1.37,0,2.3-1.06,2.3-2.34,0-1.4-.99-2.34-2.3-2.34s-2.3,.94-2.3,2.34c0,1.28,.94,2.34,2.3,2.34Z"></path>
      <path class="cls-10" d="M49.57,519.72c3.58,0,4.21,3.82,4.21,6.59s-.63,6.59-4.21,6.59-4.21-3.82-4.21-6.59,.63-6.59,4.21-6.59Zm0,12.21c2.7,0,3.03-3.64,3.03-5.62s-.32-5.62-3.03-5.62-3.02,3.64-3.02,5.62,.32,5.62,3.02,5.62Z"></path>
    </g>
  </g>
  <line class="cls-3" x1="71.61" y1="526.77" x2="71.61" y2="539.02"></line>
  <line class="cls-3" x1="190.91" y1="526.77" x2="190.91" y2="539.02"></line>
  <line class="cls-3" x1="309.08" y1="526.77" x2="309.08" y2="539.02"></line>
  <line class="cls-3" x1="428.38" y1="526.77" x2="428.38" y2="539.02"></line>
  <line class="cls-3" x1="546.56" y1="526.77" x2="546.56" y2="539.02"></line>
  <line class="cls-3" x1="665.86" y1="526.77" x2="665.86" y2="539.02"></line>
  <line class="cls-3" x1="784.07" y1="526.77" x2="784.07" y2="539.02"></line>
  <line class="cls-3" x1="903.37" y1="526.77" x2="903.37" y2="539.02"></line>
  <g>
    <line class="cls-2" x1="61.99" y1="419.96" x2="982.77" y2="419.96"></line>
    <g>
      <path class="cls-10" d="M30.87,413.8h-.02l-2.3,1.89-.67-.83,3.15-2.57h.92v12.75h-1.08v-11.24Z"></path>
      <path class="cls-10" d="M40.21,412.08c3.58,0,4.21,3.82,4.21,6.59s-.63,6.59-4.21,6.59-4.21-3.82-4.21-6.59,.63-6.59,4.21-6.59Zm0,12.21c2.7,0,3.02-3.64,3.02-5.62s-.32-5.62-3.02-5.62-3.03,3.64-3.03,5.62,.32,5.62,3.03,5.62Z"></path>
      <path class="cls-10" d="M49.57,412.08c3.58,0,4.21,3.82,4.21,6.59s-.63,6.59-4.21,6.59-4.21-3.82-4.21-6.59,.63-6.59,4.21-6.59Zm0,12.21c2.7,0,3.03-3.64,3.03-5.62s-.32-5.62-3.03-5.62-3.02,3.64-3.02,5.62,.32,5.62,3.02,5.62Z"></path>
    </g>
  </g>
  <g>
    <line class="cls-2" x1="61.99" y1="473.78" x2="982.77" y2="473.78"></line>
    <g>
      <path class="cls-10" d="M41.87,473.24h-.04c-.43,.36-1.28,.54-1.89,.54-2.27,0-3.91-1.73-3.91-3.92,0-2.3,1.76-3.96,4.18-3.96s4.18,1.66,4.18,3.96c0,1.33-.67,2.41-1.17,3.26l-3.46,5.74h-1.37l3.48-5.62Zm1.33-3.38c0-1.76-1.22-2.99-2.99-2.99s-2.99,1.22-2.99,2.99c0,1.66,1.33,2.99,2.99,2.99s2.99-1.33,2.99-2.99Z"></path>
      <path class="cls-10" d="M49.57,465.9c3.58,0,4.21,3.82,4.21,6.59s-.63,6.59-4.21,6.59-4.21-3.82-4.21-6.59,.63-6.59,4.21-6.59Zm0,12.21c2.7,0,3.03-3.64,3.03-5.62s-.32-5.62-3.03-5.62-3.02,3.64-3.02,5.62,.32,5.62,3.02,5.62Z"></path>
    </g>
  </g>
  <g>
    <line class="cls-2" x1="61.99" y1="365.44" x2="982.77" y2="365.44"></line>
    <g>
      <path class="cls-10" d="M30.87,359.98h-.02l-2.3,1.89-.67-.83,3.15-2.58h.92v12.75h-1.08v-11.24Z"></path>
      <path class="cls-10" d="M40.23,359.98h-.02l-2.3,1.89-.67-.83,3.15-2.58h.92v12.75h-1.08v-11.24Z"></path>
      <path class="cls-10" d="M49.57,358.25c3.58,0,4.21,3.82,4.21,6.59s-.63,6.59-4.21,6.59-4.21-3.82-4.21-6.59,.63-6.59,4.21-6.59Zm0,12.21c2.7,0,3.03-3.64,3.03-5.62s-.32-5.62-3.03-5.62-3.02,3.64-3.02,5.62,.32,5.62,3.02,5.62Z"></path>
    </g>
  </g>
  <g>
    <line class="cls-2" x1="61.99" y1="150.25" x2="982.77" y2="150.25"></line>
    <g>
      <path class="cls-10" d="M30.87,144.7h-.02l-2.3,1.89-.67-.83,3.15-2.57h.92v12.75h-1.08v-11.24Z"></path>
      <path class="cls-10" d="M43.65,144.16h-5.26l-.05,4.05c.56-.29,1.24-.36,1.85-.36,2.43,0,3.96,1.93,3.96,4.21,0,2.75-2.2,4.09-4.07,4.09s-3.11-.83-3.82-2.16l1.12-.56c.43,.95,1.55,1.75,2.7,1.75s2.88-1.01,2.88-3.04c0-1.84-1.39-3.31-3.2-3.31-.92,0-1.8,.36-2.52,.86l.11-6.5h6.3v.97Z"></path>
      <path class="cls-10" d="M49.57,142.97c3.58,0,4.21,3.82,4.21,6.59s-.63,6.59-4.21,6.59-4.21-3.82-4.21-6.59,.63-6.59,4.21-6.59Zm0,12.21c2.7,0,3.03-3.64,3.03-5.62s-.32-5.62-3.03-5.62-3.02,3.64-3.02,5.62,.32,5.62,3.02,5.62Z"></path>
    </g>
  </g>
  <g>
    <line class="cls-2" x1="61.99" y1="204.08" x2="982.77" y2="204.08"></line>
    <g>
      <path class="cls-10" d="M30.87,198.52h-.02l-2.3,1.89-.67-.83,3.15-2.57h.92v12.75h-1.08v-11.24Z"></path>
      <path class="cls-10" d="M41.46,206.62h-5.51v-1.28l5.1-8.34h1.49v8.64h1.94v.97h-1.94v3.13h-1.08v-3.13Zm0-8.43h-.04l-4.5,7.45h4.54v-7.45Z"></path>
      <path class="cls-10" d="M49.57,196.79c3.58,0,4.21,3.82,4.21,6.59s-.63,6.59-4.21,6.59-4.21-3.82-4.21-6.59,.63-6.59,4.21-6.59Zm0,12.21c2.7,0,3.03-3.64,3.03-5.62s-.32-5.62-3.03-5.62-3.02,3.64-3.02,5.62,.32,5.62,3.02,5.62Z"></path>
    </g>
  </g>
  <g>
    <line class="cls-2" x1="61.99" y1="257.9" x2="982.77" y2="257.9"></line>
    <g>
      <path class="cls-10" d="M30.87,252.34h-.02l-2.3,1.89-.67-.83,3.15-2.57h.92v12.75h-1.08v-11.24Z"></path>
      <path class="cls-10" d="M37.44,260.91c.47,1.22,1.24,1.91,2.68,1.91,1.89,0,2.84-1.24,2.84-2.77,0-1.89-1.75-2.63-3.37-2.63h-.47v-1.08h.54c1.37,0,2.85-.67,2.85-2.41,0-1.35-.94-2.34-2.36-2.34-1.04,0-1.93,.58-2.41,1.49l-1.03-.58c.7-1.31,1.98-1.89,3.44-1.89,1.94,0,3.55,1.08,3.55,3.28,0,1.39-.79,2.56-2.27,2.95v.04c1.62,.29,2.72,1.64,2.72,3.26,0,2.02-1.31,3.66-3.94,3.66-1.91,0-3.28-.77-3.94-2.5l1.17-.38Z"></path>
      <path class="cls-10" d="M49.57,250.61c3.58,0,4.21,3.82,4.21,6.59s-.63,6.59-4.21,6.59-4.21-3.82-4.21-6.59,.63-6.59,4.21-6.59Zm0,12.21c2.7,0,3.03-3.64,3.03-5.62s-.32-5.62-3.03-5.62-3.02,3.64-3.02,5.62,.32,5.62,3.02,5.62Z"></path>
    </g>
  </g>
  <g>
    <line class="cls-2" x1="61.99" y1="311.72" x2="982.77" y2="311.72"></line>
    <g>
      <path class="cls-10" d="M30.87,306.16h-.02l-2.3,1.89-.67-.83,3.15-2.57h.92v12.75h-1.08v-11.24Z"></path>
      <path class="cls-10" d="M36.27,316.14l4.79-5.06c.85-.88,1.82-1.93,1.82-3.29,0-1.48-1.08-2.38-2.54-2.38-1.31,0-2.29,.85-2.56,2.09l-1.26-.13c.41-1.96,1.91-2.94,3.87-2.94s3.67,1.21,3.67,3.26-1.31,3.31-2.63,4.65l-3.98,4.09h6.7v.97h-7.89v-1.26Z"></path>
      <path class="cls-10" d="M49.57,304.43c3.58,0,4.21,3.82,4.21,6.59s-.63,6.59-4.21,6.59-4.21-3.82-4.21-6.59,.63-6.59,4.21-6.59Zm0,12.21c2.7,0,3.03-3.64,3.03-5.62s-.32-5.62-3.03-5.62-3.02,3.64-3.02,5.62,.32,5.62,3.02,5.62Z"></path>
    </g>
  </g>
  <g>
    <line class="cls-2" x1="61.99" y1="97.77" x2="982.77" y2="97.77"></line>
    <g>
      <path class="cls-10" d="M30.87,90.87h-.02l-2.3,1.89-.67-.83,3.15-2.57h.92v12.75h-1.08v-11.24Z"></path>
      <path class="cls-10" d="M38.56,94.98h.04c.43-.36,1.28-.54,1.89-.54,2.27,0,3.91,1.73,3.91,3.93,0,2.3-1.76,3.96-4.18,3.96s-4.18-1.66-4.18-3.96c0-1.33,.67-2.41,1.17-3.26l3.46-5.74h1.37l-3.48,5.62Zm-1.33,3.39c0,1.76,1.22,2.99,2.99,2.99s2.99-1.22,2.99-2.99c0-1.66-1.33-2.99-2.99-2.99s-2.99,1.33-2.99,2.99Z"></path>
      <path class="cls-10" d="M49.57,89.14c3.58,0,4.21,3.82,4.21,6.59s-.63,6.59-4.21,6.59-4.21-3.82-4.21-6.59,.63-6.59,4.21-6.59Zm0,12.21c2.7,0,3.03-3.64,3.03-5.62s-.32-5.62-3.03-5.62-3.02,3.64-3.02,5.62,.32,5.62,3.02,5.62Z"></path>
    </g>
  </g>
  <g>
    <path class="cls-10" d="M35.79,68.41h-7.87v-16.8h7.56c3.75,0,6.02,1.57,6.02,4.54,0,1.76-.95,3-2.49,3.56v.2c1.79,.53,3.05,1.85,3.05,3.81,0,3.16-2.55,4.7-6.27,4.7Zm-.36-14.7h-5.21v5.21h5.21c2.27,0,3.67-1.01,3.67-2.6,0-1.82-1.37-2.6-3.67-2.6Zm-5.21,12.6h5.66c2.1,0,3.78-.92,3.78-2.74,0-1.65-1.54-2.55-3.56-2.63h-5.88v5.38Z"></path>
    <path class="cls-10" d="M53.32,68.81c-5.26,0-8.79-3.89-8.79-8.76s3.53-8.79,8.79-8.79c4,0,5.85,2.13,5.85,2.13l-1.32,1.79s-1.76-1.74-4.51-1.74c-3.81,0-6.47,2.94-6.47,6.61s2.66,6.58,6.47,6.58c2.83,0,4.51-1.74,4.51-1.74l1.32,1.79s-1.88,2.13-5.85,2.13Z"></path>
    <path class="cls-10" d="M62.2,68.41v-16.8h2.3v16.8h-2.3Z"></path>
    <path class="cls-10" d="M74.29,66.65c2.83,0,4.03-1.09,4.03-2.66,0-1.43-.95-2.16-4.42-3.14-4.03-1.15-5.85-2.38-5.85-4.98,0-2.88,2.35-4.62,6.3-4.62,4.2,0,6.05,1.62,6.05,1.62l-1.26,1.9s-1.71-1.37-4.79-1.37c-2.27,0-3.86,.87-3.86,2.44,0,1.26,1.04,1.9,4.42,2.83,4.4,1.2,5.88,2.69,5.88,5.24,0,2.77-1.96,4.9-6.47,4.9s-6.33-2.04-6.33-2.04l1.26-1.74s1.85,1.62,5.04,1.62Z"></path>
    <path class="cls-10" d="M89.66,68.41v-16.8h2.3v16.8h-2.3Z"></path>
    <path class="cls-10" d="M110.83,68.41l-11.93-12.07v12.07h-2.3v-16.8h.64l11.9,11.93v-11.93h2.32v16.8h-.64Z"></path>
    <path class="cls-10" d="M123.15,51.61c4.2,0,6.75,1.99,6.75,5.66s-2.74,5.85-6.89,5.85h-4.62v5.29h-2.3v-16.8h7.06Zm-.08,2.1h-4.68v7.34h4.68c2.72,0,4.45-1.12,4.45-3.72,0-2.44-1.76-3.61-4.45-3.61Z"></path>
    <path class="cls-10" d="M132.76,61.36v-9.74h2.3v9.74c0,3,1.62,5.24,4.87,5.24s4.84-2.24,4.84-5.24v-9.74h2.32v9.74c0,4.37-2.6,7.45-7.17,7.45s-7.17-3.08-7.17-7.45Z"></path>
    <path class="cls-10" d="M163.47,51.61v2.1h-5.82v14.7h-2.3v-14.7h-5.8v-2.1h13.92Z"></path>
    <path class="cls-10" d="M179.29,68.81c-5.26,0-8.79-3.89-8.79-8.76s3.53-8.79,8.79-8.79c4,0,5.85,2.13,5.85,2.13l-1.32,1.79s-1.76-1.74-4.51-1.74c-3.81,0-6.47,2.94-6.47,6.61s2.66,6.58,6.47,6.58c2.83,0,4.51-1.74,4.51-1.74l1.32,1.79s-1.88,2.13-5.85,2.13Z"></path>
    <path class="cls-10" d="M186.99,60.04c0-4.93,3.39-8.79,8.71-8.79s8.76,3.86,8.76,8.79-3.39,8.76-8.76,8.76-8.71-3.89-8.71-8.76Zm15.12,0c0-3.67-2.49-6.61-6.41-6.61s-6.36,2.94-6.36,6.61,2.49,6.55,6.36,6.55,6.41-2.91,6.41-6.55Z"></path>
    <path class="cls-10" d="M213.09,66.65c2.83,0,4.03-1.09,4.03-2.66,0-1.43-.95-2.16-4.42-3.14-4.03-1.15-5.85-2.38-5.85-4.98,0-2.88,2.35-4.62,6.3-4.62,4.2,0,6.05,1.62,6.05,1.62l-1.26,1.9s-1.71-1.37-4.79-1.37c-2.27,0-3.86,.87-3.86,2.44,0,1.26,1.04,1.9,4.42,2.83,4.4,1.2,5.88,2.69,5.88,5.24,0,2.77-1.96,4.9-6.47,4.9s-6.33-2.04-6.33-2.04l1.26-1.74s1.85,1.62,5.04,1.62Z"></path>
    <path class="cls-10" d="M234.98,51.61v2.1h-5.82v14.7h-2.3v-14.7h-5.8v-2.1h13.92Z"></path>
    <path class="cls-10" d="M242.85,66.65c2.83,0,4.03-1.09,4.03-2.66,0-1.43-.95-2.16-4.42-3.14-4.03-1.15-5.85-2.38-5.85-4.98,0-2.88,2.35-4.62,6.3-4.62,4.2,0,6.05,1.62,6.05,1.62l-1.26,1.9s-1.71-1.37-4.79-1.37c-2.27,0-3.86,.87-3.86,2.44,0,1.26,1.04,1.9,4.42,2.83,4.4,1.2,5.88,2.69,5.88,5.24,0,2.77-1.96,4.9-6.47,4.9s-6.33-2.04-6.33-2.04l1.26-1.74s1.85,1.62,5.04,1.62Z"></path>
  </g>
  <g>
    <path class="cls-10" d="M63.84,680.57c.56,.94,1.47,1.42,2.59,1.42,1.42,0,2.54-.86,2.54-2.22,0-3.17-5.84-1.31-5.84-5.62,0-2.02,1.73-3.1,3.63-3.1,1.23,0,2.32,.42,3.09,1.42l-.91,.66c-.53-.74-1.23-1.12-2.21-1.12-1.36,0-2.54,.7-2.54,2.14,0,3.41,5.84,1.36,5.84,5.62,0,2.05-1.68,3.19-3.52,3.19-1.49,0-2.8-.48-3.68-1.71l1.01-.67Z"></path>
    <path class="cls-10" d="M75.63,675.08c2.27,0,3.89,1.63,3.89,3.89s-1.62,3.89-3.89,3.89-3.89-1.63-3.89-3.89,1.62-3.89,3.89-3.89Zm0,6.91c1.81,0,2.93-1.36,2.93-3.02s-1.12-3.03-2.93-3.03-2.93,1.36-2.93,3.03,1.12,3.02,2.93,3.02Z"></path>
    <path class="cls-10" d="M87.92,680.58c0,.54,.08,1.7,.08,2.08h-.96c-.02-.54-.03-1.15-.06-1.3h-.05c-.38,.82-1.33,1.49-2.53,1.49-2.3,0-2.82-1.57-2.82-3.19v-4.4h.96v4.35c0,1.2,.34,2.37,1.86,2.37,1.42,0,2.56-.99,2.56-3.02v-3.7h.96v5.31Z"></path>
    <path class="cls-10" d="M90.56,677.35c0-.54-.08-1.7-.08-2.08h.96c.02,.54,.03,1.15,.06,1.3,.48-.86,1.25-1.49,2.35-1.49,.19,0,.37,.03,.56,.08l-.11,.94c-.14-.05-.27-.06-.37-.06-1.67,0-2.42,1.15-2.42,2.59v4.03h-.96v-5.31Z"></path>
    <path class="cls-10" d="M102.08,681.57c-.72,.86-1.66,1.28-2.72,1.28-2.27,0-3.89-1.63-3.89-3.89s1.62-3.89,3.89-3.89c1.07,0,2.03,.46,2.75,1.28l-.77,.58c-.56-.61-1.22-.99-1.98-.99-1.81,0-2.93,1.36-2.93,3.03s1.12,3.02,2.93,3.02c.8,0,1.49-.42,1.98-1.02l.74,.61Z"></path>
    <path class="cls-10" d="M110.12,681.27c-.75,1.12-1.89,1.58-3.2,1.58-2.26,0-3.75-1.62-3.75-3.91s1.54-3.87,3.7-3.87c2.27,0,3.47,1.74,3.47,3.46v.67h-6.21c0,.8,.56,2.79,2.8,2.79,.98,0,2-.51,2.48-1.31l.71,.59Zm-.74-2.93c0-1.31-1.14-2.4-2.56-2.4-2.1,0-2.69,2.02-2.69,2.4h5.25Z"></path>
    <path class="cls-10" d="M113.28,675.17c.43,0,.77,.34,.77,.77s-.34,.77-.77,.77-.77-.34-.77-.77,.34-.77,.77-.77Zm0,6.05c.43,0,.77,.34,.77,.77s-.34,.77-.77,.77-.77-.34-.77-.77,.34-.77,.77-.77Z"></path>
    <path class="cls-10" d="M121.07,671.33h3.27c1.73,0,3.65,.43,3.65,2.99,0,1.15-.69,2.08-2.03,2.35v.03c1.49,.11,2.53,1.2,2.53,2.79,0,2.61-2.26,3.17-3.79,3.17h-3.62v-11.33Zm1.06,4.9h2.19c2.19,0,2.61-1.2,2.61-1.9,0-1.58-1.12-2.03-2.46-2.03h-2.34v3.94Zm0,5.47h2.42c2.48,0,2.88-1.38,2.88-2.18,0-1.68-1.38-2.34-2.72-2.34h-2.58v4.51Z"></path>
    <path class="cls-10" d="M131.15,671.33h6.93v.96h-5.87v4.03h5.51v.96h-5.51v4.42h6.13v.96h-7.19v-11.33Z"></path>
    <path class="cls-10" d="M140.64,671.33h1.06v11.33h-1.06v-11.33Z"></path>
    <path class="cls-10" d="M145.1,680.57c.56,.94,1.47,1.42,2.59,1.42,1.42,0,2.54-.86,2.54-2.22,0-3.17-5.84-1.31-5.84-5.62,0-2.02,1.73-3.1,3.63-3.1,1.23,0,2.32,.42,3.09,1.42l-.91,.66c-.53-.74-1.23-1.12-2.21-1.12-1.36,0-2.54,.7-2.54,2.14,0,3.41,5.84,1.36,5.84,5.62,0,2.05-1.68,3.19-3.52,3.19-1.49,0-2.8-.48-3.68-1.71l1.01-.67Z"></path>
  </g>
  <g>
    <g>
      <path class="cls-10" d="M114.66,582.48c.9-1,1.24-1.52,1.24-2.3,0-1.26-1-2.24-2.6-2.24-1.8,0-3.02,1.3-3.1,1.4l-.92-1.32s1.5-1.66,4.08-1.66c2.86,0,4.3,1.6,4.3,3.66,0,1.1-.4,1.94-1.34,2.98l-3.7,4.12h5.34v1.5h-8.5v-.36l5.2-5.78Z"></path>
      <path class="cls-10" d="M119.72,582.64c0-3.46,1.92-6.28,5.32-6.28s5.32,2.82,5.32,6.28-1.9,6.26-5.32,6.26-5.32-2.84-5.32-6.26Zm8.96,0c0-2.62-1.26-4.72-3.64-4.72s-3.64,2.1-3.64,4.72,1.26,4.68,3.64,4.68,3.64-2.08,3.64-4.68Z"></path>
      <path class="cls-10" d="M137.32,582.48c.9-1,1.24-1.52,1.24-2.3,0-1.26-1-2.24-2.6-2.24-1.8,0-3.02,1.3-3.1,1.4l-.92-1.32s1.5-1.66,4.08-1.66c2.86,0,4.3,1.6,4.3,3.66,0,1.1-.4,1.94-1.34,2.98l-3.7,4.12h5.34v1.5h-8.5v-.36l5.2-5.78Z"></path>
      <path class="cls-10" d="M142.38,582.64c0-3.46,1.92-6.28,5.32-6.28s5.32,2.82,5.32,6.28-1.9,6.26-5.32,6.26-5.32-2.84-5.32-6.26Zm8.96,0c0-2.62-1.26-4.72-3.64-4.72s-3.64,2.1-3.64,4.72,1.26,4.68,3.64,4.68,3.64-2.08,3.64-4.68Z"></path>
    </g>
    <g>
      <path class="cls-10" d="M83.43,562.03v-1.78l10.7-4.65-10.7-4.65v-1.69h12.75v1.19h-11.24v.04l11.24,4.86v.52l-11.24,4.93v.04h11.24v1.19h-12.75Z"></path>
      <path class="cls-10" d="M92.69,539.74c1.62,0,2.54-.04,3.49-.16v1.01c-.41,.07-.88,.11-1.35,.11v.04c1.06,.61,1.57,1.51,1.57,2.92s-.7,2.93-2.47,2.93c-2.54,0-2.79-2.97-2.79-4.61v-1.26h-.5c-1.44,0-2.02,1.01-2.02,2.34,0,.97,.31,1.8,.94,2.54l-.74,.63c-.76-.79-1.17-2.09-1.17-3.17,0-2.02,.9-3.31,3.01-3.31h2.03Zm-.68,2.16c0,1.8,.45,3.6,1.87,3.6,1.03,0,1.55-.99,1.55-1.89,0-2.3-1.48-2.9-2.86-2.9h-.56v1.19Z"></path>
      <path class="cls-10" d="M90.2,536.87c-.61,0-1.91,.09-2.34,.09v-1.08c.61-.02,1.3-.04,1.46-.07-.97-.54-1.67-1.4-1.67-2.65,0-.22,.04-.41,.09-.63l1.06,.13c-.05,.16-.07,.31-.07,.41,0,1.87,1.3,2.72,2.92,2.72h4.54v1.08h-5.98Z"></path>
    </g>
    <g>
      <path class="cls-10" d="M132.62,548.38c1.53,0,4.07,.2,4.07,3.49,0,1.85-1.04,2.95-2.61,3.31l-.22-1.19c1.19-.29,1.75-1.01,1.75-2.12,0-1.69-1.15-2.3-2.7-2.3h-9.29v-1.19h9Z"></path>
      <path class="cls-10" d="M134.03,538.16c.61,0,1.91-.09,2.34-.09v1.08c-.61,.02-1.3,.04-1.46,.07v.05c.92,.43,1.67,1.49,1.67,2.84,0,2.59-1.76,3.17-3.58,3.17h-4.95v-1.08h4.9c1.35,0,2.66-.38,2.66-2.09,0-1.6-1.12-2.88-3.4-2.88h-4.16v-1.08h5.98Z"></path>
      <path class="cls-10" d="M122.75,535.01v-1.08h13.61v1.08h-13.61Z"></path>
    </g>
    <g>
      <path class="cls-10" d="M162.13,563.6v-1.53l11.16-7.76v-.04h-11.16v-1.19h12.75v1.53l-11.16,7.76v.04h11.16v1.19h-12.75Z"></path>
      <path class="cls-10" d="M166.34,545.99c0-2.56,1.84-4.38,4.38-4.38s4.38,1.82,4.38,4.38-1.84,4.38-4.38,4.38-4.38-1.82-4.38-4.38Zm7.78,0c0-2.03-1.53-3.29-3.4-3.29s-3.4,1.26-3.4,3.29,1.53,3.29,3.4,3.29,3.4-1.26,3.4-3.29Z"></path>
      <path class="cls-10" d="M166.56,540.38v-1.22l7.15-2.77-7.15-2.7v-1.1l8.32,3.28v1.12l-8.32,3.4Z"></path>
    </g>
  </g>
  <g>
    <g>
      <path class="cls-10" d="M236.86,582.48c.9-1,1.24-1.52,1.24-2.3,0-1.26-1-2.24-2.6-2.24-1.8,0-3.02,1.3-3.1,1.4l-.92-1.32s1.5-1.66,4.08-1.66c2.86,0,4.3,1.6,4.3,3.66,0,1.1-.4,1.94-1.34,2.98l-3.7,4.12h5.34v1.5h-8.5v-.36l5.2-5.78Z"></path>
      <path class="cls-10" d="M241.92,582.64c0-3.46,1.92-6.28,5.32-6.28s5.32,2.82,5.32,6.28-1.9,6.26-5.32,6.26-5.32-2.84-5.32-6.26Zm8.96,0c0-2.62-1.26-4.72-3.64-4.72s-3.64,2.1-3.64,4.72,1.26,4.68,3.64,4.68,3.64-2.08,3.64-4.68Z"></path>
      <path class="cls-10" d="M259.52,582.48c.9-1,1.24-1.52,1.24-2.3,0-1.26-1-2.24-2.6-2.24-1.8,0-3.02,1.3-3.1,1.4l-.92-1.32s1.5-1.66,4.08-1.66c2.86,0,4.3,1.6,4.3,3.66,0,1.1-.4,1.94-1.34,2.98l-3.7,4.12h5.34v1.5h-8.5v-.36l5.2-5.78Z"></path>
      <path class="cls-10" d="M268.38,576.62v12h-1.64v-10.5h-2.64v-1.5h4.28Z"></path>
    </g>
    <g>
      <path class="cls-10" d="M202.67,562.03v-1.78l10.7-4.65-10.7-4.65v-1.69h12.75v1.19h-11.24v.04l11.24,4.86v.52l-11.24,4.93v.04h11.24v1.19h-12.75Z"></path>
      <path class="cls-10" d="M211.93,539.74c1.62,0,2.54-.04,3.49-.16v1.01c-.41,.07-.88,.11-1.35,.11v.04c1.06,.61,1.57,1.51,1.57,2.92s-.7,2.93-2.47,2.93c-2.54,0-2.79-2.97-2.79-4.61v-1.26h-.5c-1.44,0-2.02,1.01-2.02,2.34,0,.97,.31,1.8,.94,2.54l-.74,.63c-.76-.79-1.17-2.09-1.17-3.17,0-2.02,.9-3.31,3.01-3.31h2.03Zm-.68,2.16c0,1.8,.45,3.6,1.87,3.6,1.03,0,1.55-.99,1.55-1.89,0-2.3-1.48-2.9-2.86-2.9h-.56v1.19Z"></path>
      <path class="cls-10" d="M209.44,536.87c-.61,0-1.91,.09-2.34,.09v-1.08c.61-.02,1.3-.04,1.46-.07-.97-.54-1.67-1.4-1.67-2.65,0-.22,.04-.41,.09-.63l1.06,.13c-.05,.16-.07,.31-.07,.41,0,1.87,1.3,2.72,2.92,2.72h4.54v1.08h-5.98Z"></path>
    </g>
    <g>
      <path class="cls-10" d="M251.86,548.38c1.53,0,4.07,.2,4.07,3.49,0,1.85-1.04,2.95-2.61,3.31l-.22-1.19c1.19-.29,1.75-1.01,1.75-2.12,0-1.69-1.15-2.3-2.7-2.3h-9.29v-1.19h9Z"></path>
      <path class="cls-10" d="M253.27,538.16c.61,0,1.91-.09,2.34-.09v1.08c-.61,.02-1.3,.04-1.46,.07v.05c.92,.43,1.67,1.49,1.67,2.84,0,2.59-1.76,3.17-3.58,3.17h-4.95v-1.08h4.9c1.35,0,2.66-.38,2.66-2.09,0-1.6-1.12-2.88-3.4-2.88h-4.16v-1.08h5.98Z"></path>
      <path class="cls-10" d="M242,535.01v-1.08h13.61v1.08h-13.61Z"></path>
    </g>
    <g>
      <path class="cls-10" d="M281.37,563.6v-1.53l11.16-7.76v-.04h-11.16v-1.19h12.75v1.53l-11.16,7.76v.04h11.16v1.19h-12.75Z"></path>
      <path class="cls-10" d="M285.58,545.99c0-2.56,1.84-4.38,4.38-4.38s4.38,1.82,4.38,4.38-1.84,4.38-4.38,4.38-4.38-1.82-4.38-4.38Zm7.78,0c0-2.03-1.53-3.29-3.4-3.29s-3.4,1.26-3.4,3.29,1.53,3.29,3.4,3.29,3.4-1.26,3.4-3.29Z"></path>
      <path class="cls-10" d="M285.8,540.38v-1.22l7.15-2.77-7.15-2.7v-1.1l8.32,3.28v1.12l-8.32,3.4Z"></path>
    </g>
  </g>
  <g>
    <g>
      <path class="cls-10" d="M352.72,582.48c.9-1,1.24-1.52,1.24-2.3,0-1.26-1-2.24-2.6-2.24-1.8,0-3.02,1.3-3.1,1.4l-.92-1.32s1.5-1.66,4.08-1.66c2.86,0,4.3,1.6,4.3,3.66,0,1.1-.4,1.94-1.34,2.98l-3.7,4.12h5.34v1.5h-8.5v-.36l5.2-5.78Z"></path>
      <path class="cls-10" d="M357.77,582.64c0-3.46,1.92-6.28,5.32-6.28s5.32,2.82,5.32,6.28-1.9,6.26-5.32,6.26-5.32-2.84-5.32-6.26Zm8.96,0c0-2.62-1.26-4.72-3.64-4.72s-3.64,2.1-3.64,4.72,1.26,4.68,3.64,4.68,3.64-2.08,3.64-4.68Z"></path>
      <path class="cls-10" d="M375.38,582.48c.9-1,1.24-1.52,1.24-2.3,0-1.26-1-2.24-2.6-2.24-1.8,0-3.02,1.3-3.1,1.4l-.92-1.32s1.5-1.66,4.08-1.66c2.86,0,4.3,1.6,4.3,3.66,0,1.1-.4,1.94-1.34,2.98l-3.7,4.12h5.34v1.5h-8.5v-.36l5.2-5.78Z"></path>
      <path class="cls-10" d="M385.6,582.48c.9-1,1.24-1.52,1.24-2.3,0-1.26-1-2.24-2.6-2.24-1.8,0-3.02,1.3-3.1,1.4l-.92-1.32s1.5-1.66,4.08-1.66c2.86,0,4.3,1.6,4.3,3.66,0,1.1-.4,1.94-1.34,2.98l-3.7,4.12h5.34v1.5h-8.5v-.36l5.2-5.78Z"></path>
    </g>
    <g>
      <path class="cls-10" d="M320.38,562.03v-1.78l10.7-4.65-10.7-4.65v-1.69h12.75v1.19h-11.24v.04l11.24,4.86v.52l-11.24,4.93v.04h11.24v1.19h-12.75Z"></path>
      <path class="cls-10" d="M329.63,539.74c1.62,0,2.54-.04,3.49-.16v1.01c-.41,.07-.88,.11-1.35,.11v.04c1.06,.61,1.57,1.51,1.57,2.92s-.7,2.93-2.47,2.93c-2.54,0-2.79-2.97-2.79-4.61v-1.26h-.5c-1.44,0-2.02,1.01-2.02,2.34,0,.97,.31,1.8,.94,2.54l-.74,.63c-.76-.79-1.17-2.09-1.17-3.17,0-2.02,.9-3.31,3.01-3.31h2.03Zm-.68,2.16c0,1.8,.45,3.6,1.87,3.6,1.03,0,1.55-.99,1.55-1.89,0-2.3-1.48-2.9-2.86-2.9h-.56v1.19Z"></path>
      <path class="cls-10" d="M327.15,536.87c-.61,0-1.91,.09-2.34,.09v-1.08c.61-.02,1.3-.04,1.46-.07-.97-.54-1.67-1.4-1.67-2.65,0-.22,.04-.41,.09-.63l1.06,.13c-.05,.16-.07,.31-.07,.41,0,1.87,1.3,2.72,2.92,2.72h4.54v1.08h-5.98Z"></path>
    </g>
    <g>
      <path class="cls-10" d="M369.57,548.38c1.53,0,4.07,.2,4.07,3.49,0,1.85-1.04,2.95-2.61,3.31l-.22-1.19c1.19-.29,1.75-1.01,1.75-2.12,0-1.69-1.15-2.3-2.7-2.3h-9.29v-1.19h9Z"></path>
      <path class="cls-10" d="M370.97,538.16c.61,0,1.91-.09,2.34-.09v1.08c-.61,.02-1.3,.04-1.46,.07v.05c.92,.43,1.67,1.49,1.67,2.84,0,2.59-1.76,3.17-3.58,3.17h-4.95v-1.08h4.9c1.35,0,2.66-.38,2.66-2.09,0-1.6-1.12-2.88-3.4-2.88h-4.16v-1.08h5.98Z"></path>
      <path class="cls-10" d="M359.7,535.01v-1.08h13.61v1.08h-13.61Z"></path>
    </g>
    <g>
      <path class="cls-10" d="M399.07,563.6v-1.53l11.16-7.76v-.04h-11.16v-1.19h12.75v1.53l-11.16,7.76v.04h11.16v1.19h-12.75Z"></path>
      <path class="cls-10" d="M403.29,545.99c0-2.56,1.84-4.38,4.38-4.38s4.38,1.82,4.38,4.38-1.84,4.38-4.38,4.38-4.38-1.82-4.38-4.38Zm7.78,0c0-2.03-1.53-3.29-3.4-3.29s-3.4,1.26-3.4,3.29,1.53,3.29,3.4,3.29,3.4-1.26,3.4-3.29Z"></path>
      <path class="cls-10" d="M403.5,540.38v-1.22l7.15-2.77-7.15-2.7v-1.1l8.32,3.28v1.12l-8.32,3.4Z"></path>
    </g>
  </g>
  <g>
    <g>
      <path class="cls-10" d="M471.9,582.48c.9-1,1.24-1.52,1.24-2.3,0-1.26-1-2.24-2.6-2.24-1.8,0-3.02,1.3-3.1,1.4l-.92-1.32s1.5-1.66,4.08-1.66c2.86,0,4.3,1.6,4.3,3.66,0,1.1-.4,1.94-1.34,2.98l-3.7,4.12h5.34v1.5h-8.5v-.36l5.2-5.78Z"></path>
      <path class="cls-10" d="M476.96,582.64c0-3.46,1.92-6.28,5.32-6.28s5.32,2.82,5.32,6.28-1.9,6.26-5.32,6.26-5.32-2.84-5.32-6.26Zm8.96,0c0-2.62-1.26-4.72-3.64-4.72s-3.64,2.1-3.64,4.72,1.26,4.68,3.64,4.68,3.64-2.08,3.64-4.68Z"></path>
      <path class="cls-10" d="M494.56,582.48c.9-1,1.24-1.52,1.24-2.3,0-1.26-1-2.24-2.6-2.24-1.8,0-3.02,1.3-3.1,1.4l-.92-1.32s1.5-1.66,4.08-1.66c2.86,0,4.3,1.6,4.3,3.66,0,1.1-.4,1.94-1.34,2.98l-3.7,4.12h5.34v1.5h-8.5v-.36l5.2-5.78Z"></path>
      <path class="cls-10" d="M502.2,582.34l3.06-4.22h-5.32v-1.5h7.98v.36l-3.3,4.54c2.22,.1,3.56,1.48,3.56,3.64s-1.6,3.74-4.5,3.74c-2.64,0-4.26-1.62-4.32-1.66,.26-.38,.58-.9,.82-1.28,0,0,1.48,1.38,3.46,1.38,1.78,0,2.84-.94,2.84-2.22,0-1.4-.98-2.3-2.6-2.3h-1.68v-.48Z"></path>
    </g>
    <g>
      <path class="cls-10" d="M439.62,562.03v-1.78l10.7-4.65-10.7-4.65v-1.69h12.75v1.19h-11.24v.04l11.24,4.86v.52l-11.24,4.93v.04h11.24v1.19h-12.75Z"></path>
      <path class="cls-10" d="M448.88,539.74c1.62,0,2.54-.04,3.49-.16v1.01c-.41,.07-.88,.11-1.35,.11v.04c1.06,.61,1.57,1.51,1.57,2.92s-.7,2.93-2.47,2.93c-2.54,0-2.79-2.97-2.79-4.61v-1.26h-.5c-1.44,0-2.02,1.01-2.02,2.34,0,.97,.31,1.8,.94,2.54l-.74,.63c-.76-.79-1.17-2.09-1.17-3.17,0-2.02,.9-3.31,3.01-3.31h2.03Zm-.68,2.16c0,1.8,.45,3.6,1.87,3.6,1.03,0,1.55-.99,1.55-1.89,0-2.3-1.48-2.9-2.86-2.9h-.56v1.19Z"></path>
      <path class="cls-10" d="M446.39,536.87c-.61,0-1.91,.09-2.34,.09v-1.08c.61-.02,1.3-.04,1.46-.07-.97-.54-1.67-1.4-1.67-2.65,0-.22,.04-.41,.09-.63l1.06,.13c-.05,.16-.07,.31-.07,.41,0,1.87,1.3,2.72,2.92,2.72h4.54v1.08h-5.98Z"></path>
    </g>
    <g>
      <path class="cls-10" d="M488.81,548.38c1.53,0,4.07,.2,4.07,3.49,0,1.85-1.04,2.95-2.61,3.31l-.22-1.19c1.19-.29,1.75-1.01,1.75-2.12,0-1.69-1.15-2.3-2.7-2.3h-9.29v-1.19h9Z"></path>
      <path class="cls-10" d="M490.22,538.16c.61,0,1.91-.09,2.34-.09v1.08c-.61,.02-1.3,.04-1.46,.07v.05c.92,.43,1.67,1.49,1.67,2.84,0,2.59-1.76,3.17-3.58,3.17h-4.95v-1.08h4.9c1.35,0,2.66-.38,2.66-2.09,0-1.6-1.12-2.88-3.4-2.88h-4.16v-1.08h5.98Z"></path>
      <path class="cls-10" d="M478.94,535.01v-1.08h13.61v1.08h-13.61Z"></path>
    </g>
    <g>
      <path class="cls-10" d="M518.32,563.6v-1.53l11.16-7.76v-.04h-11.16v-1.19h12.75v1.53l-11.16,7.76v.04h11.16v1.19h-12.75Z"></path>
      <path class="cls-10" d="M522.53,545.99c0-2.56,1.84-4.38,4.38-4.38s4.38,1.82,4.38,4.38-1.84,4.38-4.38,4.38-4.38-1.82-4.38-4.38Zm7.78,0c0-2.03-1.53-3.29-3.4-3.29s-3.4,1.26-3.4,3.29,1.53,3.29,3.4,3.29,3.4-1.26,3.4-3.29Z"></path>
      <path class="cls-10" d="M522.75,540.38v-1.22l7.15-2.77-7.15-2.7v-1.1l8.32,3.28v1.12l-8.32,3.4Z"></path>
    </g>
  </g>
  <g>
    <g>
      <path class="cls-10" d="M590.43,582.48c.9-1,1.24-1.52,1.24-2.3,0-1.26-1-2.24-2.6-2.24-1.8,0-3.02,1.3-3.1,1.4l-.92-1.32s1.5-1.66,4.08-1.66c2.86,0,4.3,1.6,4.3,3.66,0,1.1-.4,1.94-1.34,2.98l-3.7,4.12h5.34v1.5h-8.5v-.36l5.2-5.78Z"></path>
      <path class="cls-10" d="M595.49,582.64c0-3.46,1.92-6.28,5.32-6.28s5.32,2.82,5.32,6.28-1.9,6.26-5.32,6.26-5.32-2.84-5.32-6.26Zm8.96,0c0-2.62-1.26-4.72-3.64-4.72s-3.64,2.1-3.64,4.72,1.26,4.68,3.64,4.68,3.64-2.08,3.64-4.68Z"></path>
      <path class="cls-10" d="M613.09,582.48c.9-1,1.24-1.52,1.24-2.3,0-1.26-1-2.24-2.6-2.24-1.8,0-3.02,1.3-3.1,1.4l-.92-1.32s1.5-1.66,4.08-1.66c2.86,0,4.3,1.6,4.3,3.66,0,1.1-.4,1.94-1.34,2.98l-3.7,4.12h5.34v1.5h-8.5v-.36l5.2-5.78Z"></path>
      <path class="cls-10" d="M624.81,576.62h1.24v7.72h1.42v1.5h-1.44v2.78h-1.64v-2.78h-6.64v-1.2l7.06-8.02Zm-.42,7.72v-5.1l-4.1,4.72c-.12,.1-.34,.22-.34,.22v.16h4.44Z"></path>
    </g>
    <g>
      <path class="cls-10" d="M558.48,562.03v-1.78l10.7-4.65-10.7-4.65v-1.69h12.75v1.19h-11.24v.04l11.24,4.86v.52l-11.24,4.93v.04h11.24v1.19h-12.75Z"></path>
      <path class="cls-10" d="M567.73,539.74c1.62,0,2.54-.04,3.49-.16v1.01c-.41,.07-.88,.11-1.35,.11v.04c1.06,.61,1.57,1.51,1.57,2.92s-.7,2.93-2.47,2.93c-2.54,0-2.79-2.97-2.79-4.61v-1.26h-.5c-1.44,0-2.02,1.01-2.02,2.34,0,.97,.31,1.8,.94,2.54l-.74,.63c-.76-.79-1.17-2.09-1.17-3.17,0-2.02,.9-3.31,3.01-3.31h2.03Zm-.68,2.16c0,1.8,.45,3.6,1.87,3.6,1.03,0,1.55-.99,1.55-1.89,0-2.3-1.48-2.9-2.86-2.9h-.56v1.19Z"></path>
      <path class="cls-10" d="M565.25,536.87c-.61,0-1.91,.09-2.34,.09v-1.08c.61-.02,1.3-.04,1.46-.07-.97-.54-1.67-1.4-1.67-2.65,0-.22,.04-.41,.09-.63l1.06,.13c-.05,.16-.07,.31-.07,.41,0,1.87,1.3,2.72,2.92,2.72h4.54v1.08h-5.98Z"></path>
    </g>
    <g>
      <path class="cls-10" d="M607.67,548.38c1.53,0,4.07,.2,4.07,3.49,0,1.85-1.04,2.95-2.61,3.31l-.22-1.19c1.19-.29,1.75-1.01,1.75-2.12,0-1.69-1.15-2.3-2.7-2.3h-9.29v-1.19h9Z"></path>
      <path class="cls-10" d="M609.07,538.16c.61,0,1.91-.09,2.34-.09v1.08c-.61,.02-1.3,.04-1.46,.07v.05c.92,.43,1.67,1.49,1.67,2.84,0,2.59-1.76,3.17-3.58,3.17h-4.95v-1.08h4.9c1.35,0,2.67-.38,2.67-2.09,0-1.6-1.12-2.88-3.4-2.88h-4.16v-1.08h5.98Z"></path>
      <path class="cls-10" d="M597.8,535.01v-1.08h13.61v1.08h-13.61Z"></path>
    </g>
    <g>
      <path class="cls-10" d="M637.17,563.6v-1.53l11.16-7.76v-.04h-11.16v-1.19h12.75v1.53l-11.16,7.76v.04h11.16v1.19h-12.75Z"></path>
      <path class="cls-10" d="M641.39,545.99c0-2.56,1.84-4.38,4.38-4.38s4.38,1.82,4.38,4.38-1.84,4.38-4.38,4.38-4.38-1.82-4.38-4.38Zm7.78,0c0-2.03-1.53-3.29-3.4-3.29s-3.4,1.26-3.4,3.29,1.53,3.29,3.4,3.29,3.4-1.26,3.4-3.29Z"></path>
      <path class="cls-10" d="M641.6,540.38v-1.22l7.15-2.77-7.15-2.7v-1.1l8.32,3.28v1.12l-8.32,3.4Z"></path>
    </g>
  </g>
  <g>
    <g>
      <path class="cls-10" d="M709.68,582.48c.9-1,1.24-1.52,1.24-2.3,0-1.26-1-2.24-2.6-2.24-1.8,0-3.02,1.3-3.1,1.4l-.92-1.32s1.5-1.66,4.08-1.66c2.86,0,4.3,1.6,4.3,3.66,0,1.1-.4,1.94-1.34,2.98l-3.7,4.12h5.34v1.5h-8.5v-.36l5.2-5.78Z"></path>
      <path class="cls-10" d="M714.74,582.64c0-3.46,1.92-6.28,5.32-6.28s5.32,2.82,5.32,6.28-1.9,6.26-5.32,6.26-5.32-2.84-5.32-6.26Zm8.96,0c0-2.62-1.26-4.72-3.64-4.72s-3.64,2.1-3.64,4.72,1.26,4.68,3.64,4.68,3.64-2.08,3.64-4.68Z"></path>
      <path class="cls-10" d="M732.34,582.48c.9-1,1.24-1.52,1.24-2.3,0-1.26-1-2.24-2.6-2.24-1.8,0-3.02,1.3-3.1,1.4l-.92-1.32s1.5-1.66,4.08-1.66c2.86,0,4.3,1.6,4.3,3.66,0,1.1-.4,1.94-1.34,2.98l-3.7,4.12h5.34v1.5h-8.5v-.36l5.2-5.78Z"></path>
      <path class="cls-10" d="M739.8,581.42c.46-.08,.96-.14,1.56-.14,3.14,0,4.58,1.52,4.58,3.7,0,2.38-1.58,3.92-4.5,3.92-2.62,0-4.32-1.68-4.32-1.68l.86-1.28s1.5,1.4,3.46,1.4c1.72,0,2.8-.9,2.8-2.4,0-1.32-1.08-2.2-3.04-2.2-1.78,0-2.76,.42-2.78,.44l-.28-.22,.2-6.34h6.98v1.5h-5.42l-.1,3.3Z"></path>
    </g>
    <g>
      <path class="cls-10" d="M677.35,562.03v-1.78l10.7-4.65-10.7-4.65v-1.69h12.75v1.19h-11.24v.04l11.24,4.86v.52l-11.24,4.93v.04h11.24v1.19h-12.75Z"></path>
      <path class="cls-10" d="M686.6,539.74c1.62,0,2.54-.04,3.49-.16v1.01c-.41,.07-.88,.11-1.35,.11v.04c1.06,.61,1.57,1.51,1.57,2.92s-.7,2.93-2.47,2.93c-2.54,0-2.79-2.97-2.79-4.61v-1.26h-.5c-1.44,0-2.02,1.01-2.02,2.34,0,.97,.31,1.8,.94,2.54l-.74,.63c-.76-.79-1.17-2.09-1.17-3.17,0-2.02,.9-3.31,3.01-3.31h2.03Zm-.68,2.16c0,1.8,.45,3.6,1.87,3.6,1.03,0,1.55-.99,1.55-1.89,0-2.3-1.48-2.9-2.86-2.9h-.56v1.19Z"></path>
      <path class="cls-10" d="M684.12,536.87c-.61,0-1.91,.09-2.34,.09v-1.08c.61-.02,1.3-.04,1.46-.07-.97-.54-1.67-1.4-1.67-2.65,0-.22,.04-.41,.09-.63l1.06,.13c-.05,.16-.07,.31-.07,.41,0,1.87,1.3,2.72,2.92,2.72h4.54v1.08h-5.98Z"></path>
    </g>
    <g>
      <path class="cls-10" d="M726.54,548.38c1.53,0,4.07,.2,4.07,3.49,0,1.85-1.04,2.95-2.61,3.31l-.22-1.19c1.19-.29,1.75-1.01,1.75-2.12,0-1.69-1.15-2.3-2.7-2.3h-9.29v-1.19h9Z"></path>
      <path class="cls-10" d="M727.94,538.16c.61,0,1.91-.09,2.34-.09v1.08c-.61,.02-1.3,.04-1.46,.07v.05c.92,.43,1.67,1.49,1.67,2.84,0,2.59-1.76,3.17-3.58,3.17h-4.95v-1.08h4.9c1.35,0,2.66-.38,2.66-2.09,0-1.6-1.12-2.88-3.4-2.88h-4.16v-1.08h5.98Z"></path>
      <path class="cls-10" d="M716.67,535.01v-1.08h13.61v1.08h-13.61Z"></path>
    </g>
    <g>
      <path class="cls-10" d="M756.04,563.6v-1.53l11.16-7.76v-.04h-11.16v-1.19h12.75v1.53l-11.16,7.76v.04h11.16v1.19h-12.75Z"></path>
      <path class="cls-10" d="M760.26,545.99c0-2.56,1.84-4.38,4.38-4.38s4.38,1.82,4.38,4.38-1.84,4.38-4.38,4.38-4.38-1.82-4.38-4.38Zm7.78,0c0-2.03-1.53-3.29-3.4-3.29s-3.4,1.26-3.4,3.29,1.53,3.29,3.4,3.29,3.4-1.26,3.4-3.29Z"></path>
      <path class="cls-10" d="M760.47,540.38v-1.22l7.15-2.77-7.15-2.7v-1.1l8.32,3.28v1.12l-8.32,3.4Z"></path>
    </g>
  </g>
  <g>
    <g>
      <path class="cls-10" d="M828.35,582.48c.9-1,1.24-1.52,1.24-2.3,0-1.26-1-2.24-2.6-2.24-1.8,0-3.02,1.3-3.1,1.4l-.92-1.32s1.5-1.66,4.08-1.66c2.86,0,4.3,1.6,4.3,3.66,0,1.1-.4,1.94-1.34,2.98l-3.7,4.12h5.34v1.5h-8.5v-.36l5.2-5.78Z"></path>
      <path class="cls-10" d="M833.41,582.64c0-3.46,1.92-6.28,5.32-6.28s5.32,2.82,5.32,6.28-1.9,6.26-5.32,6.26-5.32-2.84-5.32-6.26Zm8.96,0c0-2.62-1.26-4.72-3.64-4.72s-3.64,2.1-3.64,4.72,1.26,4.68,3.64,4.68,3.64-2.08,3.64-4.68Z"></path>
      <path class="cls-10" d="M851.01,582.48c.9-1,1.24-1.52,1.24-2.3,0-1.26-1-2.24-2.6-2.24-1.8,0-3.02,1.3-3.1,1.4l-.92-1.32s1.5-1.66,4.08-1.66c2.86,0,4.3,1.6,4.3,3.66,0,1.1-.4,1.94-1.34,2.98l-3.7,4.12h5.34v1.5h-8.5v-.36l5.2-5.78Z"></path>
      <path class="cls-10" d="M857.21,581.42l3-4.8h2.02l-2.72,4.26c-.22,.36-.54,.58-.54,.58v.12c.46-.26,1-.42,1.62-.42,2.62,0,4.32,1.58,4.32,3.78,0,2.46-1.9,3.96-4.38,3.96-2.62,0-4.44-1.56-4.44-4,.02-1.32,.46-2.42,1.12-3.48Zm.6,3.56c0,1.42,1.16,2.4,2.72,2.4s2.66-1.02,2.66-2.4-.98-2.34-2.66-2.34c-1.52,0-2.72,.86-2.72,2.34Z"></path>
    </g>
    <g>
      <path class="cls-10" d="M796.04,562.03v-1.78l10.7-4.65-10.7-4.65v-1.69h12.75v1.19h-11.24v.04l11.24,4.86v.52l-11.24,4.93v.04h11.24v1.19h-12.75Z"></path>
      <path class="cls-10" d="M805.3,539.74c1.62,0,2.54-.04,3.49-.16v1.01c-.41,.07-.88,.11-1.35,.11v.04c1.06,.61,1.57,1.51,1.57,2.92s-.7,2.93-2.47,2.93c-2.54,0-2.79-2.97-2.79-4.61v-1.26h-.5c-1.44,0-2.02,1.01-2.02,2.34,0,.97,.31,1.8,.94,2.54l-.74,.63c-.76-.79-1.17-2.09-1.17-3.17,0-2.02,.9-3.31,3.01-3.31h2.03Zm-.68,2.16c0,1.8,.45,3.6,1.87,3.6,1.03,0,1.55-.99,1.55-1.89,0-2.3-1.48-2.9-2.86-2.9h-.56v1.19Z"></path>
      <path class="cls-10" d="M802.81,536.87c-.61,0-1.91,.09-2.34,.09v-1.08c.61-.02,1.3-.04,1.46-.07-.97-.54-1.67-1.4-1.67-2.65,0-.22,.04-.41,.09-.63l1.06,.13c-.05,.16-.07,.31-.07,.41,0,1.87,1.3,2.72,2.92,2.72h4.54v1.08h-5.98Z"></path>
    </g>
    <g>
      <path class="cls-10" d="M845.23,548.38c1.53,0,4.07,.2,4.07,3.49,0,1.85-1.04,2.95-2.61,3.31l-.22-1.19c1.19-.29,1.75-1.01,1.75-2.12,0-1.69-1.15-2.3-2.7-2.3h-9.29v-1.19h9Z"></path>
      <path class="cls-10" d="M846.63,538.16c.61,0,1.91-.09,2.34-.09v1.08c-.61,.02-1.3,.04-1.46,.07v.05c.92,.43,1.67,1.49,1.67,2.84,0,2.59-1.76,3.17-3.58,3.17h-4.95v-1.08h4.9c1.35,0,2.66-.38,2.66-2.09,0-1.6-1.12-2.88-3.4-2.88h-4.16v-1.08h5.98Z"></path>
      <path class="cls-10" d="M835.36,535.01v-1.08h13.61v1.08h-13.61Z"></path>
    </g>
    <g>
      <path class="cls-10" d="M874.74,563.6v-1.53l11.16-7.76v-.04h-11.16v-1.19h12.75v1.53l-11.16,7.76v.04h11.16v1.19h-12.75Z"></path>
      <path class="cls-10" d="M878.95,545.99c0-2.56,1.84-4.38,4.38-4.38s4.38,1.82,4.38,4.38-1.84,4.38-4.38,4.38-4.38-1.82-4.38-4.38Zm7.78,0c0-2.03-1.53-3.29-3.4-3.29s-3.4,1.26-3.4,3.29,1.53,3.29,3.4,3.29,3.4-1.26,3.4-3.29Z"></path>
      <path class="cls-10" d="M879.17,540.38v-1.22l7.15-2.77-7.15-2.7v-1.1l8.32,3.28v1.12l-8.32,3.4Z"></path>
    </g>
  </g>
  <g>
    <g>
      <path class="cls-10" d="M925.26,582.48c.9-1,1.24-1.52,1.24-2.3,0-1.26-1-2.24-2.6-2.24-1.8,0-3.02,1.3-3.1,1.4l-.92-1.32s1.5-1.66,4.08-1.66c2.86,0,4.3,1.6,4.3,3.66,0,1.1-.4,1.94-1.34,2.98l-3.7,4.12h5.34v1.5h-8.5v-.36l5.2-5.78Z"></path>
      <path class="cls-10" d="M930.32,582.64c0-3.46,1.92-6.28,5.32-6.28s5.32,2.82,5.32,6.28-1.9,6.26-5.32,6.26-5.32-2.84-5.32-6.26Zm8.96,0c0-2.62-1.26-4.72-3.64-4.72s-3.64,2.1-3.64,4.72,1.26,4.68,3.64,4.68,3.64-2.08,3.64-4.68Z"></path>
      <path class="cls-10" d="M947.92,582.48c.9-1,1.24-1.52,1.24-2.3,0-1.26-1-2.24-2.6-2.24-1.8,0-3.02,1.3-3.1,1.4l-.92-1.32s1.5-1.66,4.08-1.66c2.86,0,4.3,1.6,4.3,3.66,0,1.1-.4,1.94-1.34,2.98l-3.7,4.12h5.34v1.5h-8.5v-.36l5.2-5.78Z"></path>
      <path class="cls-10" d="M961.18,576.62v.4l-5.48,11.6h-2l5.08-10.5h-5.96v-1.5h8.36Z"></path>
    </g>
    <g>
      <path class="cls-10" d="M913.7,562.03v-1.78l10.7-4.65-10.7-4.65v-1.69h12.75v1.19h-11.24v.04l11.24,4.86v.52l-11.24,4.93v.04h11.24v1.19h-12.75Z"></path>
      <path class="cls-10" d="M922.96,539.74c1.62,0,2.54-.04,3.49-.16v1.01c-.41,.07-.88,.11-1.35,.11v.04c1.06,.61,1.57,1.51,1.57,2.92s-.7,2.93-2.47,2.93c-2.54,0-2.79-2.97-2.79-4.61v-1.26h-.5c-1.44,0-2.02,1.01-2.02,2.34,0,.97,.31,1.8,.94,2.54l-.74,.63c-.76-.79-1.17-2.09-1.17-3.17,0-2.02,.9-3.31,3.01-3.31h2.03Zm-.68,2.16c0,1.8,.45,3.6,1.87,3.6,1.03,0,1.55-.99,1.55-1.89,0-2.3-1.48-2.9-2.86-2.9h-.56v1.19Z"></path>
      <path class="cls-10" d="M920.47,536.87c-.61,0-1.91,.09-2.34,.09v-1.08c.61-.02,1.3-.04,1.46-.07-.97-.54-1.67-1.4-1.67-2.65,0-.22,.04-.41,.09-.63l1.06,.13c-.05,.16-.07,.31-.07,.41,0,1.87,1.3,2.72,2.92,2.72h4.54v1.08h-5.98Z"></path>
    </g>
    <g>
      <path class="cls-10" d="M962.89,548.38c1.53,0,4.07,.2,4.07,3.49,0,1.85-1.04,2.95-2.61,3.31l-.22-1.19c1.19-.29,1.75-1.01,1.75-2.12,0-1.69-1.15-2.3-2.7-2.3h-9.29v-1.19h9Z"></path>
      <path class="cls-10" d="M964.3,538.16c.61,0,1.91-.09,2.34-.09v1.08c-.61,.02-1.3,.04-1.46,.07v.05c.92,.43,1.67,1.49,1.67,2.84,0,2.59-1.76,3.17-3.58,3.17h-4.95v-1.08h4.9c1.35,0,2.66-.38,2.66-2.09,0-1.6-1.12-2.88-3.4-2.88h-4.16v-1.08h5.98Z"></path>
      <path class="cls-10" d="M953.03,535.01v-1.08h13.61v1.08h-13.61Z"></path>
    </g>
  </g>
  <line class="cls-6" x1="391.72" y1="643.25" x2="407.32" y2="643.25"></line>
  <g>
    <path class="cls-10" d="M417.12,635.78h3.67c1.94,0,4.11,.49,4.11,3.37,0,1.3-.77,2.34-2.29,2.65v.04c1.67,.13,2.84,1.35,2.84,3.13,0,2.93-2.54,3.56-4.27,3.56h-4.07v-12.75Zm1.19,5.51h2.47c2.47,0,2.94-1.35,2.94-2.14,0-1.78-1.26-2.29-2.77-2.29h-2.63v4.43Zm0,6.16h2.72c2.79,0,3.24-1.55,3.24-2.45,0-1.89-1.55-2.63-3.06-2.63h-2.9v5.08Z"></path>
    <path class="cls-10" d="M438.95,646.53c-1.21,1.66-2.86,2.32-4.74,2.32-3.89,0-6.59-2.81-6.59-6.7s2.7-6.7,6.59-6.7c1.73,0,3.28,.58,4.39,2l-.97,.81c-.79-1.19-2.14-1.73-3.42-1.73-3.33,0-5.4,2.45-5.4,5.62s2.07,5.62,5.4,5.62c1.28,0,2.86-.61,3.76-1.98l.97,.74Z"></path>
    <path class="cls-10" d="M441.13,635.78h1.19v12.75h-1.19v-12.75Z"></path>
    <path class="cls-10" d="M446.15,646.17c.63,1.06,1.66,1.6,2.92,1.6,1.6,0,2.86-.97,2.86-2.5,0-3.57-6.57-1.48-6.57-6.32,0-2.27,1.94-3.49,4.09-3.49,1.39,0,2.61,.47,3.47,1.6l-1.03,.74c-.59-.83-1.39-1.26-2.48-1.26-1.53,0-2.86,.79-2.86,2.41,0,3.83,6.57,1.53,6.57,6.32,0,2.3-1.89,3.58-3.96,3.58-1.67,0-3.15-.54-4.14-1.93l1.13-.76Z"></path>
    <path class="cls-10" d="M460.5,635.78h3.67c1.8,0,4.11,.7,4.11,3.37,0,2.3-1.84,3.33-3.83,3.33h-2.75v6.05h-1.19v-12.75Zm1.19,5.62h2.7c1.35,0,2.7-.58,2.7-2.25s-1.4-2.29-2.77-2.29h-2.63v4.54Z"></path>
    <path class="cls-10" d="M470.7,634.91h1.08v13.61h-1.08v-13.61Z"></path>
    <path class="cls-10" d="M481.31,645.03c0,1.62,.04,2.54,.16,3.49h-1.01c-.07-.41-.11-.88-.11-1.35h-.04c-.61,1.06-1.51,1.57-2.92,1.57s-2.93-.7-2.93-2.47c0-2.54,2.97-2.79,4.61-2.79h1.26v-.5c0-1.44-1.01-2.02-2.34-2.02-.97,0-1.8,.31-2.54,.94l-.63-.74c.79-.76,2.09-1.17,3.17-1.17,2.02,0,3.31,.9,3.31,3.01v2.03Zm-2.16-.68c-1.8,0-3.6,.45-3.6,1.87,0,1.03,.99,1.55,1.89,1.55,2.3,0,2.9-1.48,2.9-2.86v-.56h-1.19Z"></path>
    <path class="cls-10" d="M484.18,642.55c0-.61-.09-1.91-.09-2.34h1.08c.02,.61,.04,1.3,.07,1.46h.05c.43-.92,1.49-1.67,2.84-1.67,2.59,0,3.17,1.76,3.17,3.58v4.95h-1.08v-4.9c0-1.35-.38-2.66-2.09-2.66-1.6,0-2.88,1.12-2.88,3.4v4.16h-1.08v-5.98Z"></path>
    <path class="cls-10" d="M498.26,641.18h-2.38v5.42c0,.74,.43,1.17,1.15,1.17,.41,0,.85-.13,1.22-.29l.09,.97c-.4,.14-.99,.29-1.4,.29-1.55,0-2.14-.95-2.14-2.14v-5.42h-1.8v-.97h1.8v-2.4h1.08v2.4h2.38v.97Z"></path>
    <path class="cls-10" d="M515.67,646.53c-1.21,1.66-2.86,2.32-4.74,2.32-3.89,0-6.59-2.81-6.59-6.7s2.7-6.7,6.59-6.7c1.73,0,3.28,.58,4.39,2l-.97,.81c-.79-1.19-2.14-1.73-3.42-1.73-3.33,0-5.4,2.45-5.4,5.62s2.07,5.62,5.4,5.62c1.28,0,2.86-.61,3.76-1.98l.97,.74Z"></path>
    <path class="cls-10" d="M521.45,639.99c2.56,0,4.38,1.84,4.38,4.38s-1.82,4.38-4.38,4.38-4.38-1.84-4.38-4.38,1.82-4.38,4.38-4.38Zm0,7.78c2.03,0,3.29-1.53,3.29-3.4s-1.26-3.4-3.29-3.4-3.29,1.53-3.29,3.4,1.26,3.4,3.29,3.4Z"></path>
    <path class="cls-10" d="M528.25,646.4c.45,.88,1.44,1.37,2.41,1.37s1.91-.58,1.91-1.53c0-2.29-4.93-.68-4.93-3.85,0-1.62,1.48-2.4,2.84-2.4s2.4,.5,2.94,1.57l-.97,.58c-.41-.76-.99-1.17-1.96-1.17-.77,0-1.76,.47-1.76,1.33,0,2.25,4.93,.5,4.93,3.87,0,1.71-1.42,2.58-3.01,2.58-1.42,0-2.7-.54-3.35-1.69l.95-.65Z"></path>
    <path class="cls-10" d="M539.97,641.18h-2.38v5.42c0,.74,.43,1.17,1.15,1.17,.41,0,.85-.13,1.22-.29l.09,.97c-.4,.14-.99,.29-1.4,.29-1.55,0-2.14-.95-2.14-2.14v-5.42h-1.8v-.97h1.8v-2.4h1.08v2.4h2.38v.97Z"></path>
    <path class="cls-10" d="M546.88,635.78h1.19v12.75h-1.19v-12.75Z"></path>
    <path class="cls-10" d="M551.25,642.55c0-.61-.09-1.91-.09-2.34h1.08c.02,.61,.04,1.3,.07,1.46h.05c.43-.92,1.49-1.67,2.84-1.67,2.59,0,3.17,1.76,3.17,3.58v4.95h-1.08v-4.9c0-1.35-.38-2.66-2.09-2.66-1.6,0-2.88,1.12-2.88,3.4v4.16h-1.08v-5.98Z"></path>
    <path class="cls-10" d="M568.53,647.07h-.04c-.67,1.15-2.09,1.67-3.33,1.67-2.56,0-4.38-1.84-4.38-4.38s1.82-4.38,4.38-4.38c1.24,0,2.66,.52,3.33,1.67h.04v-6.75h1.08v13.61h-1.08v-1.46Zm-3.37-6.1c-2.03,0-3.29,1.53-3.29,3.4s1.26,3.4,3.29,3.4,3.48-1.53,3.48-3.4-1.51-3.4-3.48-3.4Z"></path>
    <path class="cls-10" d="M579.6,646.96c-.85,1.26-2.12,1.78-3.6,1.78-2.54,0-4.21-1.82-4.21-4.39s1.73-4.36,4.16-4.36c2.56,0,3.91,1.96,3.91,3.89v.76h-6.99c0,.9,.63,3.13,3.15,3.13,1.1,0,2.25-.58,2.79-1.48l.79,.67Zm-.83-3.29c0-1.48-1.28-2.7-2.88-2.7-2.36,0-3.02,2.27-3.02,2.7h5.91Z"></path>
    <path class="cls-10" d="M584.39,644.02l-2.97-3.82h1.39l2.3,3.15,2.29-3.15h1.35l-2.94,3.82,3.57,4.5h-1.4l-2.9-3.76-2.84,3.76h-1.3l3.46-4.5Z"></path>
  </g>
  <line class="cls-5" x1="391.41" y1="617.92" x2="407.01" y2="617.92"></line>
  <g>
    <path class="cls-10" d="M415.29,610.45h3.67c1.94,0,4.11,.49,4.11,3.37,0,1.3-.77,2.34-2.29,2.65v.04c1.67,.13,2.84,1.35,2.84,3.13,0,2.93-2.54,3.56-4.27,3.56h-4.07v-12.75Zm1.19,5.51h2.47c2.47,0,2.94-1.35,2.94-2.14,0-1.78-1.26-2.29-2.77-2.29h-2.63v4.43Zm0,6.16h2.72c2.79,0,3.24-1.55,3.24-2.45,0-1.89-1.55-2.63-3.06-2.63h-2.9v5.08Z"></path>
    <path class="cls-10" d="M437.12,621.2c-1.21,1.66-2.86,2.32-4.74,2.32-3.89,0-6.59-2.81-6.59-6.7s2.7-6.7,6.59-6.7c1.73,0,3.28,.58,4.39,2l-.97,.81c-.79-1.19-2.14-1.73-3.42-1.73-3.33,0-5.4,2.45-5.4,5.62s2.07,5.62,5.4,5.62c1.28,0,2.86-.61,3.76-1.98l.97,.74Z"></path>
    <path class="cls-10" d="M439.3,610.45h1.19v12.75h-1.19v-12.75Z"></path>
    <path class="cls-10" d="M444.32,620.84c.63,1.06,1.66,1.6,2.92,1.6,1.6,0,2.86-.97,2.86-2.5,0-3.57-6.57-1.48-6.57-6.32,0-2.27,1.94-3.49,4.09-3.49,1.39,0,2.61,.47,3.47,1.6l-1.03,.74c-.59-.83-1.39-1.26-2.48-1.26-1.53,0-2.86,.79-2.86,2.41,0,3.83,6.57,1.53,6.57,6.32,0,2.3-1.89,3.58-3.96,3.58-1.67,0-3.15-.54-4.14-1.93l1.13-.76Z"></path>
    <path class="cls-10" d="M458.54,610.45h1.78l4.65,10.69,4.65-10.69h1.69v12.75h-1.19v-11.24h-.04l-4.86,11.24h-.52l-4.93-11.24h-.04v11.24h-1.19v-12.75Z"></path>
    <path class="cls-10" d="M480.82,619.71c0,1.62,.04,2.54,.16,3.49h-1.01c-.07-.41-.11-.88-.11-1.35h-.04c-.61,1.06-1.51,1.57-2.92,1.57s-2.93-.7-2.93-2.47c0-2.54,2.97-2.79,4.61-2.79h1.26v-.5c0-1.44-1.01-2.02-2.34-2.02-.97,0-1.8,.31-2.54,.94l-.63-.74c.79-.76,2.09-1.17,3.17-1.17,2.02,0,3.31,.9,3.31,3.01v2.03Zm-2.16-.68c-1.8,0-3.6,.45-3.6,1.87,0,1.03,.99,1.55,1.89,1.55,2.3,0,2.9-1.48,2.9-2.86v-.56h-1.19Z"></path>
    <path class="cls-10" d="M487.77,615.85h-2.38v5.42c0,.74,.43,1.17,1.15,1.17,.41,0,.85-.13,1.22-.29l.09,.97c-.4,.14-.99,.29-1.4,.29-1.55,0-2.14-.95-2.14-2.14v-5.42h-1.8v-.97h1.8v-2.4h1.08v2.4h2.38v.97Z"></path>
    <path class="cls-10" d="M497.04,621.63c-.85,1.26-2.12,1.78-3.6,1.78-2.54,0-4.21-1.82-4.21-4.39s1.73-4.36,4.16-4.36c2.56,0,3.91,1.96,3.91,3.89v.76h-6.99c0,.9,.63,3.13,3.15,3.13,1.1,0,2.25-.58,2.79-1.48l.79,.67Zm-.83-3.29c0-1.48-1.28-2.7-2.88-2.7-2.36,0-3.02,2.27-3.02,2.7h5.91Z"></path>
    <path class="cls-10" d="M499.7,617.22c0-.61-.09-1.91-.09-2.34h1.08c.02,.61,.04,1.3,.07,1.46,.54-.97,1.4-1.67,2.65-1.67,.22,0,.41,.04,.63,.09l-.13,1.06c-.16-.05-.31-.07-.41-.07-1.87,0-2.72,1.3-2.72,2.92v4.54h-1.08v-5.98Z"></path>
    <path class="cls-10" d="M506.42,610.78c.45,0,.81,.36,.81,.81s-.36,.81-.81,.81-.81-.36-.81-.81,.36-.81,.81-.81Zm-.54,4.11h1.08v8.32h-1.08v-8.32Z"></path>
    <path class="cls-10" d="M516.48,619.71c0,1.62,.04,2.54,.16,3.49h-1.01c-.07-.41-.11-.88-.11-1.35h-.04c-.61,1.06-1.51,1.57-2.92,1.57s-2.93-.7-2.93-2.47c0-2.54,2.97-2.79,4.61-2.79h1.26v-.5c0-1.44-1.01-2.02-2.34-2.02-.97,0-1.8,.31-2.54,.94l-.63-.74c.79-.76,2.09-1.17,3.17-1.17,2.02,0,3.31,.9,3.31,3.01v2.03Zm-2.16-.68c-1.8,0-3.6,.45-3.6,1.87,0,1.03,.99,1.55,1.89,1.55,2.3,0,2.9-1.48,2.9-2.86v-.56h-1.19Z"></path>
    <path class="cls-10" d="M519.54,609.59h1.08v13.61h-1.08v-13.61Z"></path>
    <path class="cls-10" d="M523.7,621.08c.45,.88,1.44,1.37,2.41,1.37s1.91-.58,1.91-1.53c0-2.29-4.93-.68-4.93-3.85,0-1.62,1.48-2.4,2.84-2.4s2.4,.5,2.94,1.57l-.97,.58c-.41-.76-.99-1.17-1.96-1.17-.77,0-1.76,.47-1.76,1.33,0,2.25,4.93,.5,4.93,3.87,0,1.71-1.42,2.58-3.01,2.58-1.42,0-2.7-.54-3.35-1.69l.95-.65Z"></path>
    <path class="cls-10" d="M546.83,621.2c-1.21,1.66-2.86,2.32-4.74,2.32-3.89,0-6.59-2.81-6.59-6.7s2.7-6.7,6.59-6.7c1.73,0,3.28,.58,4.39,2l-.97,.81c-.79-1.19-2.14-1.73-3.42-1.73-3.33,0-5.4,2.45-5.4,5.62s2.07,5.62,5.4,5.62c1.28,0,2.86-.61,3.76-1.98l.97,.74Z"></path>
    <path class="cls-10" d="M552.61,614.67c2.56,0,4.38,1.84,4.38,4.38s-1.82,4.38-4.38,4.38-4.38-1.84-4.38-4.38,1.82-4.38,4.38-4.38Zm0,7.78c2.03,0,3.29-1.53,3.29-3.4s-1.26-3.4-3.29-3.4-3.29,1.53-3.29,3.4,1.26,3.4,3.29,3.4Z"></path>
    <path class="cls-10" d="M559.41,621.08c.45,.88,1.44,1.37,2.41,1.37s1.91-.58,1.91-1.53c0-2.29-4.93-.68-4.93-3.85,0-1.62,1.48-2.4,2.84-2.4s2.4,.5,2.94,1.57l-.97,.58c-.41-.76-.99-1.17-1.96-1.17-.77,0-1.76,.47-1.76,1.33,0,2.25,4.93,.5,4.93,3.87,0,1.71-1.42,2.58-3.01,2.58-1.42,0-2.7-.54-3.35-1.69l.95-.65Z"></path>
    <path class="cls-10" d="M571.13,615.85h-2.38v5.42c0,.74,.43,1.17,1.15,1.17,.41,0,.85-.13,1.22-.29l.09,.97c-.4,.14-.99,.29-1.4,.29-1.55,0-2.14-.95-2.14-2.14v-5.42h-1.8v-.97h1.8v-2.4h1.08v2.4h2.38v.97Z"></path>
    <path class="cls-10" d="M578.04,610.45h1.19v12.75h-1.19v-12.75Z"></path>
    <path class="cls-10" d="M582.41,617.22c0-.61-.09-1.91-.09-2.34h1.08c.02,.61,.04,1.3,.07,1.46h.05c.43-.92,1.49-1.67,2.84-1.67,2.59,0,3.17,1.76,3.17,3.58v4.95h-1.08v-4.9c0-1.35-.38-2.66-2.09-2.66-1.6,0-2.88,1.12-2.88,3.4v4.16h-1.08v-5.98Z"></path>
    <path class="cls-10" d="M599.7,621.74h-.04c-.67,1.15-2.09,1.67-3.33,1.67-2.56,0-4.38-1.84-4.38-4.38s1.82-4.38,4.38-4.38c1.24,0,2.66,.52,3.33,1.67h.04v-6.75h1.08v13.61h-1.08v-1.46Zm-3.37-6.1c-2.03,0-3.29,1.53-3.29,3.4s1.26,3.4,3.29,3.4,3.48-1.53,3.48-3.4-1.51-3.4-3.48-3.4Z"></path>
    <path class="cls-10" d="M610.77,621.63c-.85,1.26-2.12,1.78-3.6,1.78-2.54,0-4.21-1.82-4.21-4.39s1.73-4.36,4.16-4.36c2.56,0,3.91,1.96,3.91,3.89v.76h-6.99c0,.9,.63,3.13,3.15,3.13,1.1,0,2.25-.58,2.79-1.48l.79,.67Zm-.83-3.29c0-1.48-1.28-2.7-2.88-2.7-2.36,0-3.02,2.27-3.02,2.7h5.91Z"></path>
    <path class="cls-10" d="M615.55,618.7l-2.97-3.82h1.39l2.3,3.15,2.29-3.15h1.35l-2.94,3.82,3.57,4.5h-1.4l-2.9-3.76-2.85,3.76h-1.3l3.46-4.5Z"></path>
  </g>
  <line class="cls-7" x1="62.57" y1="617.92" x2="78.17" y2="617.92"></line>
  <g>
    <path class="cls-10" d="M86.44,611.21h3.67c1.94,0,4.11,.49,4.11,3.37,0,1.3-.77,2.34-2.29,2.65v.04c1.67,.13,2.84,1.35,2.84,3.13,0,2.93-2.54,3.56-4.27,3.56h-4.07v-12.75Zm1.19,5.51h2.47c2.47,0,2.93-1.35,2.93-2.14,0-1.78-1.26-2.29-2.77-2.29h-2.63v4.43Zm0,6.16h2.72c2.79,0,3.24-1.55,3.24-2.45,0-1.89-1.55-2.63-3.06-2.63h-2.9v5.08Z"></path>
    <path class="cls-10" d="M108.28,621.96c-1.21,1.66-2.86,2.32-4.74,2.32-3.89,0-6.59-2.81-6.59-6.7s2.7-6.7,6.59-6.7c1.73,0,3.28,.58,4.39,2l-.97,.81c-.79-1.19-2.14-1.73-3.42-1.73-3.33,0-5.4,2.45-5.4,5.62s2.07,5.62,5.4,5.62c1.28,0,2.86-.61,3.76-1.98l.97,.74Z"></path>
    <path class="cls-10" d="M110.45,611.21h1.19v12.75h-1.19v-12.75Z"></path>
    <path class="cls-10" d="M115.47,621.6c.63,1.06,1.66,1.6,2.92,1.6,1.6,0,2.86-.97,2.86-2.5,0-3.57-6.57-1.48-6.57-6.32,0-2.27,1.94-3.49,4.09-3.49,1.39,0,2.61,.47,3.48,1.6l-1.03,.74c-.59-.83-1.39-1.26-2.48-1.26-1.53,0-2.86,.79-2.86,2.41,0,3.83,6.57,1.53,6.57,6.32,0,2.3-1.89,3.58-3.96,3.58-1.67,0-3.15-.54-4.14-1.93l1.13-.76Z"></path>
    <path class="cls-10" d="M140.33,623.13c-1.48,.85-3.1,1.15-4.75,1.15-3.89,0-6.59-2.81-6.59-6.7s2.7-6.7,6.59-6.7c1.89,0,3.42,.58,4.59,1.76l-.86,.9c-.77-.94-2.34-1.58-3.73-1.58-3.33,0-5.4,2.45-5.4,5.62s2.07,5.62,5.4,5.62c1.37,0,2.59-.18,3.56-.76v-4.29h-3.06v-1.08h4.25v6.05Z"></path>
    <path class="cls-10" d="M150.86,622.39c-.85,1.26-2.12,1.78-3.6,1.78-2.54,0-4.21-1.82-4.21-4.39s1.73-4.36,4.16-4.36c2.56,0,3.91,1.96,3.91,3.89v.76h-6.99c0,.9,.63,3.13,3.15,3.13,1.1,0,2.25-.58,2.79-1.48l.79,.67Zm-.83-3.29c0-1.48-1.28-2.7-2.88-2.7-2.36,0-3.02,2.27-3.02,2.7h5.91Z"></path>
    <path class="cls-10" d="M153.52,617.98c0-.61-.09-1.91-.09-2.34h1.08c.02,.61,.04,1.3,.07,1.46h.05c.43-.92,1.49-1.67,2.85-1.67,2.59,0,3.17,1.76,3.17,3.58v4.95h-1.08v-4.9c0-1.35-.38-2.66-2.09-2.66-1.6,0-2.88,1.12-2.88,3.4v4.16h-1.08v-5.98Z"></path>
    <path class="cls-10" d="M170.88,622.39c-.85,1.26-2.12,1.78-3.6,1.78-2.54,0-4.21-1.82-4.21-4.39s1.73-4.36,4.16-4.36c2.56,0,3.91,1.96,3.91,3.89v.76h-6.99c0,.9,.63,3.13,3.15,3.13,1.1,0,2.25-.58,2.79-1.48l.79,.67Zm-.83-3.29c0-1.48-1.28-2.7-2.88-2.7-2.36,0-3.02,2.27-3.02,2.7h5.91Z"></path>
    <path class="cls-10" d="M173.54,617.98c0-.61-.09-1.91-.09-2.34h1.08c.02,.61,.04,1.3,.07,1.46,.54-.97,1.4-1.67,2.65-1.67,.22,0,.41,.04,.63,.09l-.13,1.06c-.16-.05-.31-.07-.41-.07-1.87,0-2.72,1.3-2.72,2.92v4.54h-1.08v-5.98Z"></path>
    <path class="cls-10" d="M186,620.46c0,1.62,.04,2.54,.16,3.49h-1.01c-.07-.41-.11-.88-.11-1.35h-.04c-.61,1.06-1.51,1.57-2.92,1.57s-2.93-.7-2.93-2.47c0-2.54,2.97-2.79,4.61-2.79h1.26v-.5c0-1.44-1.01-2.02-2.34-2.02-.97,0-1.8,.31-2.54,.94l-.63-.74c.79-.76,2.09-1.17,3.17-1.17,2.02,0,3.31,.9,3.31,3.01v2.03Zm-2.16-.68c-1.8,0-3.6,.45-3.6,1.87,0,1.03,.99,1.55,1.89,1.55,2.3,0,2.9-1.48,2.9-2.86v-.56h-1.19Z"></path>
    <path class="cls-10" d="M189.06,610.34h1.08v13.61h-1.08v-13.61Z"></path>
    <path class="cls-10" d="M198.18,611.21h3.67c1.94,0,4.11,.49,4.11,3.37,0,1.3-.77,2.34-2.29,2.65v.04c1.67,.13,2.84,1.35,2.84,3.13,0,2.93-2.54,3.56-4.27,3.56h-4.07v-12.75Zm1.19,5.51h2.47c2.47,0,2.93-1.35,2.93-2.14,0-1.78-1.26-2.29-2.77-2.29h-2.63v4.43Zm0,6.16h2.72c2.79,0,3.24-1.55,3.24-2.45,0-1.89-1.55-2.63-3.06-2.63h-2.9v5.08Z"></path>
    <path class="cls-10" d="M216.26,621.61c0,.61,.09,1.91,.09,2.34h-1.08c-.02-.61-.04-1.3-.07-1.46h-.05c-.43,.92-1.49,1.67-2.84,1.67-2.59,0-3.17-1.76-3.17-3.58v-4.95h1.08v4.9c0,1.35,.38,2.66,2.09,2.66,1.6,0,2.88-1.12,2.88-3.4v-4.16h1.08v5.98Z"></path>
    <path class="cls-10" d="M219.94,611.53c.45,0,.81,.36,.81,.81s-.36,.81-.81,.81-.81-.36-.81-.81,.36-.81,.81-.81Zm-.54,4.11h1.08v8.32h-1.08v-8.32Z"></path>
    <path class="cls-10" d="M223.72,610.34h1.08v13.61h-1.08v-13.61Z"></path>
    <path class="cls-10" d="M235.14,622.5h-.04c-.67,1.15-2.09,1.67-3.33,1.67-2.56,0-4.38-1.84-4.38-4.38s1.82-4.38,4.38-4.38c1.24,0,2.66,.52,3.33,1.67h.04v-6.75h1.08v13.61h-1.08v-1.46Zm-3.37-6.1c-2.03,0-3.29,1.53-3.29,3.4s1.26,3.4,3.29,3.4,3.48-1.53,3.48-3.4-1.51-3.4-3.48-3.4Z"></path>
    <path class="cls-10" d="M239.58,611.53c.45,0,.81,.36,.81,.81s-.36,.81-.81,.81-.81-.36-.81-.81,.36-.81,.81-.81Zm-.54,4.11h1.08v8.32h-1.08v-8.32Z"></path>
    <path class="cls-10" d="M243.18,617.98c0-.61-.09-1.91-.09-2.34h1.08c.02,.61,.04,1.3,.07,1.46h.05c.43-.92,1.49-1.67,2.84-1.67,2.59,0,3.17,1.76,3.17,3.58v4.95h-1.08v-4.9c0-1.35-.38-2.66-2.09-2.66-1.6,0-2.88,1.12-2.88,3.4v4.16h-1.08v-5.98Z"></path>
    <path class="cls-10" d="M261.54,623.41c0,4.14-2.74,4.86-4.43,4.86s-3.28-.65-4.12-1.75l.85-.79c.76,1.06,1.98,1.57,3.28,1.57,3.29,0,3.35-2.88,3.35-3.82v-1.15h-.04c-.63,.99-1.73,1.62-3.15,1.62-2.45,0-4.45-1.93-4.45-4.27s2-4.27,4.45-4.27c1.42,0,2.52,.63,3.15,1.62h.04v-1.4h1.08v7.78Zm-4.34-7.02c-1.82,0-3.29,1.48-3.29,3.29s1.48,3.29,3.29,3.29,3.29-1.48,3.29-3.29-1.48-3.29-3.29-3.29Z"></path>
    <path class="cls-10" d="M279.67,621.96c-1.21,1.66-2.86,2.32-4.74,2.32-3.89,0-6.59-2.81-6.59-6.7s2.7-6.7,6.59-6.7c1.73,0,3.28,.58,4.39,2l-.97,.81c-.79-1.19-2.14-1.73-3.42-1.73-3.33,0-5.4,2.45-5.4,5.62s2.07,5.62,5.4,5.62c1.28,0,2.86-.61,3.76-1.98l.97,.74Z"></path>
    <path class="cls-10" d="M285.45,615.42c2.56,0,4.38,1.84,4.38,4.38s-1.82,4.38-4.38,4.38-4.38-1.84-4.38-4.38,1.82-4.38,4.38-4.38Zm0,7.78c2.03,0,3.29-1.53,3.29-3.4s-1.26-3.4-3.29-3.4-3.29,1.53-3.29,3.4,1.26,3.4,3.29,3.4Z"></path>
    <path class="cls-10" d="M292.25,621.83c.45,.88,1.44,1.37,2.41,1.37s1.91-.58,1.91-1.53c0-2.29-4.93-.68-4.93-3.85,0-1.62,1.48-2.4,2.84-2.4s2.4,.5,2.94,1.57l-.97,.58c-.41-.76-.99-1.17-1.96-1.17-.77,0-1.76,.47-1.76,1.33,0,2.25,4.93,.5,4.93,3.87,0,1.71-1.42,2.58-3.01,2.58-1.42,0-2.7-.54-3.35-1.69l.95-.65Z"></path>
    <path class="cls-10" d="M303.97,616.61h-2.38v5.42c0,.74,.43,1.17,1.15,1.17,.41,0,.85-.13,1.22-.29l.09,.97c-.4,.14-.99,.29-1.4,.29-1.55,0-2.14-.95-2.14-2.14v-5.42h-1.8v-.97h1.8v-2.4h1.08v2.4h2.38v.97Z"></path>
    <path class="cls-10" d="M310.88,611.21h1.19v12.75h-1.19v-12.75Z"></path>
    <path class="cls-10" d="M315.25,617.98c0-.61-.09-1.91-.09-2.34h1.08c.02,.61,.04,1.3,.07,1.46h.05c.43-.92,1.49-1.67,2.85-1.67,2.59,0,3.17,1.76,3.17,3.58v4.95h-1.08v-4.9c0-1.35-.38-2.66-2.09-2.66-1.6,0-2.88,1.12-2.88,3.4v4.16h-1.08v-5.98Z"></path>
    <path class="cls-10" d="M332.53,622.5h-.04c-.67,1.15-2.09,1.67-3.33,1.67-2.56,0-4.38-1.84-4.38-4.38s1.82-4.38,4.38-4.38c1.24,0,2.66,.52,3.33,1.67h.04v-6.75h1.08v13.61h-1.08v-1.46Zm-3.37-6.1c-2.03,0-3.29,1.53-3.29,3.4s1.26,3.4,3.29,3.4,3.48-1.53,3.48-3.4-1.51-3.4-3.48-3.4Z"></path>
    <path class="cls-10" d="M343.6,622.39c-.85,1.26-2.12,1.78-3.6,1.78-2.54,0-4.21-1.82-4.21-4.39s1.73-4.36,4.16-4.36c2.56,0,3.91,1.96,3.91,3.89v.76h-6.99c0,.9,.63,3.13,3.15,3.13,1.1,0,2.25-.58,2.79-1.48l.79,.67Zm-.83-3.29c0-1.48-1.28-2.7-2.88-2.7-2.36,0-3.02,2.27-3.02,2.7h5.91Z"></path>
    <path class="cls-10" d="M348.39,619.45l-2.97-3.82h1.39l2.3,3.15,2.29-3.15h1.35l-2.94,3.82,3.57,4.5h-1.4l-2.9-3.76-2.84,3.76h-1.3l3.46-4.5Z"></path>
  </g>
  <line class="cls-4" x1="62.57" y1="643.25" x2="78.17" y2="643.25"></line>
  <g>
    <path class="cls-10" d="M86.44,636.53h3.67c1.94,0,4.11,.49,4.11,3.37,0,1.3-.77,2.34-2.29,2.65v.04c1.67,.13,2.84,1.35,2.84,3.13,0,2.93-2.54,3.56-4.27,3.56h-4.07v-12.75Zm1.19,5.51h2.47c2.47,0,2.93-1.35,2.93-2.14,0-1.78-1.26-2.29-2.77-2.29h-2.63v4.43Zm0,6.16h2.72c2.79,0,3.24-1.55,3.24-2.45,0-1.89-1.55-2.63-3.06-2.63h-2.9v5.08Z"></path>
    <path class="cls-10" d="M108.28,647.28c-1.21,1.66-2.86,2.32-4.74,2.32-3.89,0-6.59-2.81-6.59-6.7s2.7-6.7,6.59-6.7c1.73,0,3.28,.58,4.39,2l-.97,.81c-.79-1.19-2.14-1.73-3.42-1.73-3.33,0-5.4,2.45-5.4,5.62s2.07,5.62,5.4,5.62c1.28,0,2.86-.61,3.76-1.98l.97,.74Z"></path>
    <path class="cls-10" d="M110.45,636.53h1.19v12.75h-1.19v-12.75Z"></path>
    <path class="cls-10" d="M115.47,646.92c.63,1.06,1.66,1.6,2.92,1.6,1.6,0,2.86-.97,2.86-2.5,0-3.57-6.57-1.48-6.57-6.32,0-2.27,1.94-3.49,4.09-3.49,1.39,0,2.61,.47,3.48,1.6l-1.03,.74c-.59-.83-1.39-1.26-2.48-1.26-1.53,0-2.86,.79-2.86,2.41,0,3.83,6.57,1.53,6.57,6.32,0,2.3-1.89,3.58-3.96,3.58-1.67,0-3.15-.54-4.14-1.93l1.13-.76Z"></path>
    <path class="cls-10" d="M129.82,636.53h1.19v11.67h5.94v1.08h-7.13v-12.75Z"></path>
    <path class="cls-10" d="M144.98,645.79c0,1.62,.04,2.54,.16,3.49h-1.01c-.07-.41-.11-.88-.11-1.35h-.04c-.61,1.06-1.51,1.57-2.92,1.57s-2.93-.7-2.93-2.47c0-2.54,2.97-2.79,4.61-2.79h1.26v-.5c0-1.44-1.01-2.02-2.34-2.02-.97,0-1.8,.31-2.54,.94l-.63-.74c.79-.76,2.09-1.17,3.17-1.17,2.02,0,3.31,.9,3.31,3.01v2.03Zm-2.16-.68c-1.8,0-3.6,.45-3.6,1.87,0,1.03,.99,1.55,1.89,1.55,2.3,0,2.9-1.48,2.9-2.86v-.56h-1.19Z"></path>
    <path class="cls-10" d="M147.62,635.67h1.08v6.75h.04c.67-1.15,2.09-1.67,3.33-1.67,2.56,0,4.38,1.84,4.38,4.38s-1.82,4.38-4.38,4.38c-1.24,0-2.67-.52-3.33-1.67h-.04v1.46h-1.08v-13.61Zm4.45,12.86c2.03,0,3.29-1.53,3.29-3.4s-1.26-3.4-3.29-3.4-3.48,1.53-3.48,3.4,1.51,3.4,3.48,3.4Z"></path>
    <path class="cls-10" d="M162.76,640.74c2.56,0,4.38,1.84,4.38,4.38s-1.82,4.38-4.38,4.38-4.38-1.84-4.38-4.38,1.82-4.38,4.38-4.38Zm0,7.78c2.03,0,3.29-1.53,3.29-3.4s-1.26-3.4-3.29-3.4-3.29,1.53-3.29,3.4,1.26,3.4,3.29,3.4Z"></path>
    <path class="cls-10" d="M176.58,646.94c0,.61,.09,1.91,.09,2.34h-1.08c-.02-.61-.04-1.3-.07-1.46h-.05c-.43,.92-1.49,1.67-2.84,1.67-2.59,0-3.17-1.76-3.17-3.58v-4.95h1.08v4.9c0,1.35,.38,2.66,2.09,2.66,1.6,0,2.88-1.12,2.88-3.4v-4.16h1.08v5.98Z"></path>
    <path class="cls-10" d="M179.55,643.3c0-.61-.09-1.91-.09-2.34h1.08c.02,.61,.04,1.3,.07,1.46,.54-.97,1.4-1.67,2.65-1.67,.22,0,.41,.04,.63,.09l-.13,1.06c-.16-.05-.31-.07-.41-.07-1.87,0-2.72,1.3-2.72,2.92v4.54h-1.08v-5.98Z"></path>
    <path class="cls-10" d="M201.03,647.28c-1.21,1.66-2.86,2.32-4.74,2.32-3.89,0-6.59-2.81-6.59-6.7s2.7-6.7,6.59-6.7c1.73,0,3.28,.58,4.39,2l-.97,.81c-.79-1.19-2.14-1.73-3.42-1.73-3.33,0-5.4,2.45-5.4,5.62s2.07,5.62,5.4,5.62c1.28,0,2.86-.61,3.76-1.98l.97,.74Z"></path>
    <path class="cls-10" d="M206.8,640.74c2.56,0,4.38,1.84,4.38,4.38s-1.82,4.38-4.38,4.38-4.38-1.84-4.38-4.38,1.82-4.38,4.38-4.38Zm0,7.78c2.03,0,3.29-1.53,3.29-3.4s-1.26-3.4-3.29-3.4-3.29,1.53-3.29,3.4,1.26,3.4,3.29,3.4Z"></path>
    <path class="cls-10" d="M213.61,647.15c.45,.88,1.44,1.37,2.41,1.37s1.91-.58,1.91-1.53c0-2.29-4.93-.68-4.93-3.85,0-1.62,1.48-2.4,2.84-2.4s2.4,.5,2.94,1.57l-.97,.58c-.41-.76-.99-1.17-1.96-1.17-.77,0-1.76,.47-1.76,1.33,0,2.25,4.93,.5,4.93,3.87,0,1.71-1.42,2.58-3.01,2.58-1.42,0-2.7-.54-3.35-1.69l.95-.65Z"></path>
    <path class="cls-10" d="M225.33,641.93h-2.38v5.42c0,.74,.43,1.17,1.15,1.17,.41,0,.85-.13,1.22-.29l.09,.97c-.4,.14-.99,.29-1.4,.29-1.55,0-2.14-.95-2.14-2.14v-5.42h-1.8v-.97h1.8v-2.4h1.08v2.4h2.38v.97Z"></path>
    <path class="cls-10" d="M232.24,636.53h1.19v12.75h-1.19v-12.75Z"></path>
    <path class="cls-10" d="M236.61,643.3c0-.61-.09-1.91-.09-2.34h1.08c.02,.61,.04,1.3,.07,1.46h.05c.43-.92,1.49-1.67,2.85-1.67,2.59,0,3.17,1.76,3.17,3.58v4.95h-1.08v-4.9c0-1.35-.38-2.66-2.09-2.66-1.6,0-2.88,1.12-2.88,3.4v4.16h-1.08v-5.98Z"></path>
    <path class="cls-10" d="M253.89,647.82h-.04c-.67,1.15-2.09,1.67-3.33,1.67-2.56,0-4.38-1.84-4.38-4.38s1.82-4.38,4.38-4.38c1.24,0,2.66,.52,3.33,1.67h.04v-6.75h1.08v13.61h-1.08v-1.46Zm-3.37-6.1c-2.03,0-3.29,1.53-3.29,3.4s1.26,3.4,3.29,3.4,3.48-1.53,3.48-3.4-1.51-3.4-3.48-3.4Z"></path>
    <path class="cls-10" d="M264.96,647.71c-.85,1.26-2.12,1.78-3.6,1.78-2.54,0-4.21-1.82-4.21-4.39s1.73-4.36,4.16-4.36c2.56,0,3.91,1.96,3.91,3.89v.76h-6.99c0,.9,.63,3.13,3.15,3.13,1.1,0,2.25-.58,2.79-1.48l.79,.67Zm-.83-3.29c0-1.48-1.28-2.7-2.88-2.7-2.36,0-3.02,2.27-3.02,2.7h5.91Z"></path>
    <path class="cls-10" d="M269.75,644.78l-2.97-3.82h1.39l2.3,3.15,2.29-3.15h1.35l-2.94,3.82,3.57,4.5h-1.4l-2.9-3.76-2.85,3.76h-1.3l3.46-4.5Z"></path>
  </g>
  <polyline class="cls-1" points="76.46 419.86 86.63 419.18 96.79 418.5 106.23 419.18 116.39 417.15 126.55 418.5 135.99 417.83 146.15 417.83 155.59 417.15 165.75 415.79 175.91 414.44 185.35 410.37 195.51 409.02 205.68 404.28 215.11 399.53 225.28 396.15 234.71 392.08 244.88 387.34 255.04 377.86 264.48 366.34 274.64 360.24 284.8 356.18 294.24 352.79 304.4 352.79 313.84 350.08 324 348.05 334.16 340.59 343.6 322.3 353.76 309.43 363.93 295.88 373.36 299.27 383.53 289.78 392.96 294.53 403.13 293.17 413.29 291.82 422.73 292.49 432.89 290.46 442.33 291.82 452.49 294.53 462.65 293.17 472.09 293.85 482.25 296.56 492.41 274.2 501.85 272.17 512.01 270.81 521.45 266.75 531.61 266.07 541.78 265.39 551.21 263.36 561.38 261.33 571.54 260.65 580.97 257.94 591.14 255.91 600.57 255.91 610.74 247.78 620.9 247.1 630.34 246.43 640.5 243.72 650.66 243.04 660.1 243.04 670.26 240.33 679.7 238.3 689.86 236.94 700.02 234.23 709.46 232.2 719.62 232.2 729.79 226.1 739.22 224.75 749.39 224.75 758.82 222.71 768.99 222.04 779.15 222.04 788.59 219.33 798.75 217.29 808.91 215.94 818.35 212.55 828.51 210.52 837.95 211.2 848.11 205.1 858.27 204.42 867.71 204.42 877.87 203.07 888.04 202.39 897.47 201.71 907.64 199 917.07 196.97 927.24 196.29 937.4 194.26 946.84 193.58 957 195.61"></polyline>
  <polyline class="cls-4" points="76.46 419.86 86.63 419.86 96.79 419.86 106.23 419.86 116.39 419.86 126.55 419.86 135.99 419.86 146.15 419.86 155.59 419.86 165.75 419.86 175.91 419.86 185.35 419.86 195.51 419.86 205.68 419.86 215.11 419.18 225.28 419.86 234.71 419.86 244.88 419.86 255.04 411.05 264.48 411.05 274.64 411.05 284.8 409.02 294.24 409.02 304.4 409.02 313.84 407.66 324 407.66 334.16 406.99 343.6 402.92 353.76 402.92 363.93 401.57 373.36 401.57 383.53 381.24 392.96 381.24 403.13 379.89 413.29 379.89 422.73 379.89 432.89 371.08 442.33 371.08 452.49 371.08 462.65 371.08 472.09 371.08 482.25 371.08 492.41 330.43 501.85 330.43 512.01 330.43 521.45 324.34 531.61 324.34 541.78 324.34 551.21 319.59 561.38 319.59 571.54 319.59 580.97 319.59 591.14 319.59 600.57 319.59 610.74 304.01 620.9 304.01 630.34 304.01 640.5 300.62 650.66 300.62 660.1 300.62 670.26 297.24 679.7 297.24 689.86 297.24 700.02 297.24 709.46 297.24 719.62 297.24 729.79 285.72 739.22 285.72 749.39 285.72 758.82 283.69 768.99 283.69 779.15 283.69 788.59 280.98 798.75 280.98 808.91 280.98 818.35 280.98 828.51 280.98 837.95 280.98 848.11 268.78 858.27 268.78 867.71 268.78 877.87 267.43 888.04 267.43 897.47 267.43 907.64 264.04 917.07 264.04 927.24 264.04 937.4 264.04 946.84 264.04 957 264.04 967.16 251.85 976.6 251.85"></polyline>
  <polyline class="cls-5" points="76.46 419.86 86.63 417.15 96.79 413.76 106.23 414.44 116.39 409.7 126.55 413.08 135.99 412.41 146.15 412.41 155.59 409.7 165.75 407.66 175.91 404.28 185.35 396.82 195.51 394.11 205.68 383.95 215.11 373.79 225.28 366.34 234.71 357.53 244.88 348.05 255.04 337.21 264.48 312.82 274.64 300.62 284.8 295.2 294.24 287.75 304.4 285.72 313.84 283.69 324 278.94 334.16 268.1 343.6 240.33 353.76 213.23 363.93 187.49 373.36 195.61 383.53 196.97 392.96 207.13 403.13 204.42 413.29 202.39 422.73 203.07 432.89 209.16 442.33 211.87 452.49 215.94 462.65 213.91 472.09 215.26 482.25 220 492.41 217.29 501.85 213.91 512.01 210.52 521.45 209.16 531.61 207.81 541.78 206.45 551.21 206.45 561.38 203.07 571.54 201.71 580.97 195.61 591.14 192.23 600.57 192.91 610.74 191.55 620.9 189.52 630.34 188.16 640.5 186.81 650.66 184.78 660.1 184.78 670.26 183.42 679.7 178.68 689.86 175.97 700.02 170.55 709.46 166.48 719.62 166.48 729.79 165.81 739.22 163.77 749.39 162.42 758.82 161.06 768.99 159.71 779.15 159.03 788.59 157 798.75 152.93 808.91 149.55 818.35 143.45 828.51 140.06 837.95 140.74 848.11 140.74 858.27 139.38 867.71 139.38 877.87 138.03 888.04 136.67 897.47 136 907.64 133.96 917.07 129.22 927.24 127.87 937.4 123.8 946.84 123.13 957 126.51"></polyline>
  <polyline class="cls-8" points="76.46 419.86 86.63 428.67 96.79 451.7 106.23 459.83 116.39 460.51 126.55 451.02 135.99 444.93 146.15 445.6 155.59 451.02 165.75 451.02 175.91 449.67 185.35 442.22 195.51 438.83 205.68 432.73 215.11 427.99 225.28 429.34 234.71 423.25 244.88 418.5 255.04 408.34 264.48 408.34 274.64 398.86 284.8 379.89 294.24 378.53 304.4 385.31 313.84 374.47 324 366.34 334.16 314.85 343.6 238.97 353.76 224.75 363.93 195.61 373.36 196.97 383.53 185.45 392.96 206.45"></polyline>
  <g>
    <path class="cls-10" d="M412.47,111.34v1.47h-7.15v3.77h6.26v1.43h-6.26v5.11h-1.61v-11.78h8.76Z"></path>
    <path class="cls-10" d="M413.82,117.25c0-3.46,2.38-6.17,6.11-6.17s6.15,2.71,6.15,6.17-2.38,6.15-6.15,6.15-6.11-2.73-6.11-6.15Zm10.61,0c0-2.57-1.75-4.63-4.5-4.63s-4.46,2.06-4.46,4.63,1.75,4.6,4.46,4.6,4.5-2.04,4.5-4.6Z"></path>
    <path class="cls-10" d="M438.2,115.31c0,1.89-1.04,3.12-2.65,3.67v.08l3.04,3.75v.31h-1.79l-3.08-3.83h-3.59v3.83h-1.61v-11.78h4.93c2.95,0,4.75,1.39,4.75,3.97Zm-4.79-2.49h-3.28v5.03h3.44c1.73,0,2.95-.79,2.95-2.49s-1.22-2.53-3.1-2.53Z"></path>
    <path class="cls-10" d="M442.52,118.02v3.63h7.15v1.47h-8.76v-11.78h8.76v1.47h-7.15v3.77h6.21v1.43h-6.21Z"></path>
    <path class="cls-10" d="M457.38,123.4c-3.69,0-6.17-2.73-6.17-6.15s2.47-6.17,6.17-6.17c2.81,0,4.1,1.49,4.1,1.49l-.92,1.26s-1.24-1.22-3.16-1.22c-2.67,0-4.54,2.06-4.54,4.63s1.87,4.61,4.54,4.61c1.98,0,3.16-1.22,3.16-1.22l.92,1.26s-1.32,1.49-4.1,1.49Z"></path>
    <path class="cls-10" d="M468.15,111.34l5.87,11.78h-1.85l-.96-1.92h-6.46l-.96,1.92h-1.83l5.85-11.78h.33Zm-.27,3.18l-2.3,5.05-.12,.2h5.05l-.12-.2-2.32-5.05h-.2Z"></path>
    <path class="cls-10" d="M479.22,121.89c1.98,0,2.83-.77,2.83-1.87,0-1-.67-1.51-3.1-2.2-2.83-.81-4.1-1.67-4.1-3.5,0-2.02,1.65-3.24,4.42-3.24,2.95,0,4.24,1.14,4.24,1.14l-.88,1.33s-1.2-.96-3.36-.96c-1.59,0-2.71,.61-2.71,1.71,0,.88,.73,1.34,3.1,1.98,3.08,.84,4.12,1.89,4.12,3.67,0,1.94-1.38,3.44-4.54,3.44s-4.44-1.43-4.44-1.43l.88-1.22s1.3,1.14,3.53,1.14Z"></path>
    <path class="cls-10" d="M494.58,111.34v1.47h-4.08v10.31h-1.61v-10.31h-4.06v-1.47h9.76Z"></path>
  </g>
</svg>
